<svg xmlns="http://www.w3.org/2000/svg" viewBox="0 0 355.39 355.39"><defs><style>.cls-1{fill:#f6f6f6;}</style></defs><g id="Capa_2" data-name="Capa 2"><g id="svg"><path id="i-461" class="cls-1" d="M177.7,0C79.71,0,0,79.71,0,177.7S79.71,355.39,177.7,355.39,355.39,275.68,355.39,177.7,275.68,0,177.7,0ZM338.8,169.19A161.5,161.5,0,0,1,186.22,16.58,161.5,161.5,0,0,1,338.8,169.19ZM16.59,186.28c82.27,4.32,148.29,70.26,152.61,152.54A161.52,161.52,0,0,1,16.59,186.28ZM185.34,338.84C181,247.63,107.76,174.37,16.54,170.05a161.48,161.48,0,0,1,153.3-153.5c4.32,91.25,77.75,164.7,169,169A161.48,161.48,0,0,1,185.34,338.84Z"/></g></g></svg>