<svg xmlns="http://www.w3.org/2000/svg" viewBox="0 0 344.16 358.5"><defs><style>.cls-1{fill:#f6f6f6;}</style></defs><g id="Capa_2" data-name="Capa 2"><g id="svg"><path class="cls-1" d="M286.8,0a57.58,57.58,0,0,0-57.36,57.36c0,10.27,3.69,19.17,8.06,29.13a311.08,311.08,0,0,0,15.24,30c8.95,15.43,16.54,26.37,19.72,30.92v74.84a50.19,50.19,0,1,1-100.38,0V86a71.7,71.7,0,0,0-143.4,0V247.81a27.69,27.69,0,0,0-12.55,34.06,43,43,0,1,0,53.78,0,27.69,27.69,0,0,0-12.55-34.06V86a43,43,0,0,1,86,0V222.27a78.87,78.87,0,1,0,157.74,0V147.43c3.18-4.55,10.77-15.49,19.71-30.92a308.82,308.82,0,0,0,15.24-30c4.38-10,8.07-18.86,8.07-29.13A57.58,57.58,0,0,0,286.8,0Zm0,28.68a28.46,28.46,0,0,1,28.68,28.68c0,1.61-1.69,9.08-5.38,17.48a296.18,296.18,0,0,1-14.34,27.33c-4.51,7.78-5.28,8.61-9,14.34-3.68-5.73-4.45-6.56-9-14.34A291.36,291.36,0,0,1,263.5,74.84c-3.69-8.4-5.38-15.87-5.38-17.48A28.46,28.46,0,0,1,286.8,28.68ZM43,301.14a14.34,14.34,0,1,1-14.34,14.34A14.13,14.13,0,0,1,43,301.14Z"/></g></g></svg>