<svg xmlns="http://www.w3.org/2000/svg" viewBox="0 0 300.76 331.86"><defs><style>.cls-1{fill:#f6f6f6;stroke:#f6f6f6;stroke-miterlimit:10;stroke-width:3px;fill-rule:evenodd;}</style></defs><g id="Capa_2" data-name="Capa 2"><g id="svg"><g id="svgg"><path id="path0" class="cls-1" d="M18.19,2.54C12.34,4.79,8.14,13.38,6,27.38c-.63,4.16-.62,26.18,0,31.93.25,2.24.68,6.2,1,8.82S8.07,76.07,8.74,80c1.85,10.82,2.53,14.23,4,20.29.2.78.5,2,.68,2.74,1.54,6.27,3.09,11.41,6.6,21.85,3.28,9.8,3.23,9.29,1.37,13.12-2.2,4.52-5.82,12.91-5.82,13.48a2.82,2.82,0,0,1-.33.95c-.18.34-.67,1.57-1.09,2.73s-.9,2.43-1.07,2.82c-.4.95-1.41,4-1.76,5.3-.15.58-.85,3-1.56,5.45a211.14,211.14,0,0,0-6.9,32.83c-.22,1.84-.55,4.51-.73,5.93-1.52,12.1,1.29,27,7.15,37.82,1.68,3.1,6.38,10.28,7.16,10.93a1.45,1.45,0,0,1,.54.8c0,.38,1.23,1.92,4,5a10.37,10.37,0,0,1,1.67,2.2c0,.73,19.13,19.08,20.42,19.59a8.57,8.57,0,0,1,1.79,1.5,4.81,4.81,0,0,0,1.62,1.27,3,3,0,0,1,1.25.93,14.4,14.4,0,0,0,2.09,1.77c.68.47,1.87,1.33,2.65,1.91,1.35,1,3.26,2.37,5,3.51l2.43,1.68a9.4,9.4,0,0,0,1.92,1.14,2.23,2.23,0,0,1,.92.71,2.16,2.16,0,0,0,.95.7,1.47,1.47,0,0,1,.74.37,32.94,32.94,0,0,0,5.18,3.16c.2,0,.36.12.36.27a5.17,5.17,0,0,0,1.68,1.14,14.4,14.4,0,0,1,1.85,1.07c.1.11,1.37.81,2.83,1.57s3.12,1.65,3.7,2c1.79,1.06,14.08,7,14.48,7,.08,0,1.06.41,2.18.92,13.21,6,30.93,11.28,43.3,13,16,2.23,46.32-2.73,62.48-10.21.58-.27,1.85-.81,2.82-1.19,2.19-.86,10.5-4.65,13.58-6.19,5.13-2.55,10.42-5.3,10.59-5.5a22.56,22.56,0,0,1,2.47-1.41,11.55,11.55,0,0,0,2.41-1.49.55.55,0,0,1,.48-.29,17.94,17.94,0,0,0,3-1.77,21.45,21.45,0,0,1,2.91-1.76,2.35,2.35,0,0,0,.9-.71,2.12,2.12,0,0,1,1.06-.7,2.09,2.09,0,0,0,1.06-.71,2.08,2.08,0,0,1,1-.7,2.26,2.26,0,0,0,1-.59,10.67,10.67,0,0,1,1.3-1c.92-.54,3.14-2.12,4.87-3.47l3.35-2.6a29.19,29.19,0,0,0,2.74-2.39,3.26,3.26,0,0,1,1.19-.92c.33,0,3.43-2.88,8.54-7.94,3.36-3.33,8.51-8.91,10.24-11.1.77-1,1.88-2.39,2.47-3.11,2.34-2.9,3.35-4.29,3.35-4.59a2.2,2.2,0,0,1,.7-1,2.09,2.09,0,0,0,.71-1.06,2.09,2.09,0,0,1,.71-1.06,2.13,2.13,0,0,0,.7-1,1.42,1.42,0,0,1,.43-.83c3.06-3.07,9.17-18.11,10.83-26.68,3.37-17.4-.5-46.68-9.36-70.73-.68-1.87-1.55-4.07-1.92-4.89a12,12,0,0,1-.68-1.67c0-.34-2.23-5.06-5-10.55-3.12-6.26-3.19-6.59-1.95-10.45,2.79-8.71,5.94-19.33,7.62-25.76.44-1.65.92-3.48,1.08-4.06s.45-1.73.66-2.56.53-2.09.71-2.82.67-2.75,1.08-4.5.88-3.73,1.05-4.41.58-2.58.9-4.23.74-3.72.92-4.59c.85-4.06,1.95-10.83,2.8-17.29,1.29-9.77,1.76-22.44,1-27.63A103.11,103.11,0,0,0,295,20.5c-1.91-8.15-5.16-14.72-8.47-17.17-2.6-1.91-13.84-.07-23.31,3.82-2.46,1-10.25,5-11.7,6a7.47,7.47,0,0,1-1.93,1c-.22,0-.39.13-.39.29s-.44.52-1,.8a7.68,7.68,0,0,0-1.15.68c-.09.11-1,.8-2.11,1.55-9.85,6.93-23.34,19.76-32.48,30.91-1.19,1.45-2.51,3-2.93,3.52s-1.31,1.6-2,2.47c-3.14,4.06-3.06,4.05-9.36,2.3a180.27,180.27,0,0,0-47.88-6.88,132.77,132.77,0,0,0-18.1,1.08c-8.78,1-23.18,3.94-29.51,6.12a22,22,0,0,1-3.28.79L97.79,58l-3.2-3.31c-1.75-1.82-4.41-4.67-5.89-6.31-4.9-5.45-22.41-22.71-26.31-25.94-2.11-1.75-4-3.33-4.22-3.53s-1-.78-1.69-1.32S55,16.43,54.71,16.18c-.92-.85-8.18-5.74-10.52-7.09-10-5.72-20.95-8.49-26-6.55M28,7.93a51.81,51.81,0,0,1,6.67,2.22,44.6,44.6,0,0,1,6.59,3.36,9.06,9.06,0,0,0,1.69,1,37.68,37.68,0,0,1,3.47,2.18C57.25,24,71.22,37,89.53,57c6.83,7.46,8.19,8.47,9.17,6.88a1.2,1.2,0,0,1,.91-.35,3.63,3.63,0,0,0,1.39-.36l1.4-.7a3.3,3.3,0,0,1,1.24-.35,3.07,3.07,0,0,0,1.15-.32,15.34,15.34,0,0,1,2.2-.75c.88-.23,2-.56,2.4-.74a5.6,5.6,0,0,1,1.66-.31,1.46,1.46,0,0,0,1.06-.35,2.1,2.1,0,0,1,1.41-.36,2.17,2.17,0,0,0,1.41-.35,2.48,2.48,0,0,1,1.54-.35,3.42,3.42,0,0,0,1.66-.32,5.05,5.05,0,0,1,1.92-.52c.87-.11,2.62-.37,3.88-.57,18.29-3,44-2.44,61.22,1.41,1,.22,2.36.48,3.09.59a3.1,3.1,0,0,1,1.52.5,2.18,2.18,0,0,0,1.39.32,2.19,2.19,0,0,1,1.41.35,1.45,1.45,0,0,0,1.08.35,3.93,3.93,0,0,1,1.48.32,14.38,14.38,0,0,0,2.2.74,16.49,16.49,0,0,1,2.2.74,3.17,3.17,0,0,0,1.25.32,1.73,1.73,0,0,1,1,.29q3.34,2.91,7.07-1.91c1.93-2.5,8.87-11,9.31-11.43.1-.1,1.21-1.37,2.47-2.83,3-3.46,14-14.5,17-16.95,1.26-1.06,2.37-2,2.47-2.13,1.1-1.27,9.81-7.57,13.93-10.08a127.15,127.15,0,0,1,11.47-5.86c4-1.63,4.49-1.78,10.76-3.39,2.61-.67,6.69-.88,7.62-.38,1.19.63,2.42,2.56,3.49,5.45.15.39.42,1.1.62,1.59l.7,1.76a15.56,15.56,0,0,1,1.16,4.1,1.81,1.81,0,0,0,.31,1,4.47,4.47,0,0,1,.52,1.74c.11.78.4,2.76.65,4.41.57,3.83.56,17.78,0,23.64-.72,7.4-1.08,10.25-2.2,17.29-.2,1.26-.45,3-.56,3.88A5.17,5.17,0,0,1,288,75a3.64,3.64,0,0,0-.32,1.78,3.67,3.67,0,0,1-.32,1.78,4.62,4.62,0,0,0-.5,1.75c-.11.77-.36,2.16-.57,3.08s-.52,2.36-.71,3.18-.49,2.14-.69,2.91c-.57,2.27-1,4.13-1.41,5.65-.19.77-.5,2-.69,2.64s-.67,2.43-1.05,3.88c-.95,3.64-1.65,6.09-2.54,9-.8,2.62-1.21,4-1.58,5.47a15.64,15.64,0,0,1-.52,1.59c-.15.39-.47,1.42-.71,2.29a14.72,14.72,0,0,1-.74,2.2,3,3,0,0,0-.32,1.15,3,3,0,0,1-.32,1.16,15,15,0,0,0-.73,2.2c-.22.87-.56,2.07-.74,2.67-.44,1.44-.42,6.05,0,6.32a1.41,1.41,0,0,1,.35,1,47.27,47.27,0,0,0,3.13,7,169.32,169.32,0,0,1,7.44,17.08c.15.38.43,1.1.63,1.58s.71,2.08,1.14,3.53a33.14,33.14,0,0,0,1.1,3.26,3.75,3.75,0,0,1,.32,1.48,1.51,1.51,0,0,0,.31,1.06,2.63,2.63,0,0,1,.51,1.34c.1.64.37,1.87.58,2.74a161.94,161.94,0,0,1,4.75,39,89.09,89.09,0,0,1-.45,10.23c-.24,1.36-.52,3.07-.63,3.8a3.28,3.28,0,0,1-.52,1.52,1.82,1.82,0,0,0-.32,1.21,1.81,1.81,0,0,1-.35,1.24,1.43,1.43,0,0,0-.35,1,1.4,1.4,0,0,1-.36,1.06,1.2,1.2,0,0,0-.35.91,3.4,3.4,0,0,1-.31,1.3c-.17.34-.63,1.33-1,2.2a85.13,85.13,0,0,1-7.69,14,93,93,0,0,1-6.5,8.91,6.51,6.51,0,0,0-.73.92c-4.53,6.62-18.89,20.06-28,26.24a19.48,19.48,0,0,0-1.94,1.43c-.36.47-8.8,5.95-13.06,8.48-5.85,3.47-6.21,3.67-8.46,4.8a15.5,15.5,0,0,0-2.12,1.18c-.45.54-10.51,5.17-16.23,7.47l-5.12,2.07c-.39.16-1.34.49-2.12.74a7.31,7.31,0,0,0-1.74.73,2.2,2.2,0,0,1-1.13.28,1.33,1.33,0,0,0-1,.35,1.43,1.43,0,0,1-1,.35,1.44,1.44,0,0,0-1.06.35,1.42,1.42,0,0,1-1.06.36,1.46,1.46,0,0,0-1.06.35,1.81,1.81,0,0,1-1.24.35,1.74,1.74,0,0,0-1.23.36,1.5,1.5,0,0,1-1.08.35,3.89,3.89,0,0,0-1.48.31,12.69,12.69,0,0,1-3.88,1.1,1.3,1.3,0,0,0-1,.31,2.57,2.57,0,0,1-1.34.52c-.63.11-2,.37-3.09.59s-2.66.46-3.53.56a10.63,10.63,0,0,0-2.29.49,10.6,10.6,0,0,1-2.3.49c-.87.09-3.25.37-5.29.62a98.13,98.13,0,0,1-32.11-2.17c-.87-.22-2.1-.49-2.74-.59a2.63,2.63,0,0,1-1.34-.51,1.46,1.46,0,0,0-1-.31,1.44,1.44,0,0,1-1.06-.35,1.42,1.42,0,0,0-1.06-.36,1.42,1.42,0,0,1-1.06-.35,1.79,1.79,0,0,0-1.23-.35,1.81,1.81,0,0,1-1.24-.35,1.17,1.17,0,0,0-.91-.36,3.8,3.8,0,0,1-1.39-.35l-1.4-.71a3.8,3.8,0,0,0-1.39-.35,1.2,1.2,0,0,1-.91-.35,1.17,1.17,0,0,0-.91-.35,3.33,3.33,0,0,1-1.3-.33c-.33-.18-2.75-1.16-5.37-2.17-4.48-1.73-5.59-2.19-9.53-3.93-2.23-1-8.17-3.77-8.9-4.17l-3.88-2.05c-5.76-3-10.66-5.82-14.22-8.14-1.36-.89-2.9-1.84-3.43-2.12a9,9,0,0,1-1.66-1.14,2.43,2.43,0,0,0-1-.65,2.46,2.46,0,0,1-1-.64c-.38-.35-1.72-1.33-3-2.18s-2.37-1.64-2.47-1.76a12.93,12.93,0,0,0-1.41-1.08c-1.39-1-1.17-.8-5.47-4.26-1.75-1.4-3.25-2.65-3.35-2.76s-.73-.66-1.41-1.21c-8.37-6.78-20.39-19.6-25-26.68-.7-1.07-1.36-2-1.46-2.13s-1.12-1.73-2.87-4.76c-.73-1.26-3.08-6.06-3.46-7.06-.25-.65-.58-1.47-1.4-3.44-.18-.43-.52-1.43-.75-2.2s-.55-1.73-.7-2.12a27.85,27.85,0,0,1-1.12-5.29c-1-6.44.45-25,2.92-36.7.21-1,.46-2.32.55-3a9.54,9.54,0,0,1,.49-1.94,9.38,9.38,0,0,0,.49-1.76c.09-.58.36-1.78.57-2.65s.49-2.1.59-2.74a2.73,2.73,0,0,1,.51-1.34,1.83,1.83,0,0,0,.31-1.21,1.75,1.75,0,0,1,.36-1.24,1.48,1.48,0,0,0,.35-1.08,3.75,3.75,0,0,1,.32-1.48,17,17,0,0,0,.74-2.2,14.38,14.38,0,0,1,.74-2.2,3.18,3.18,0,0,0,.32-1.15c0-.52.14-.9,1-2.56a3.87,3.87,0,0,0,.41-1.42,1.75,1.75,0,0,1,.28-1,17.09,17.09,0,0,0,1.11-2.8A27.4,27.4,0,0,1,20.54,153a16.7,16.7,0,0,0,.88-2.11c.36-1,1-2.56,1.44-3.53l1.56-3.53c.43-1,1.5-3.25,2.39-5.06,2.08-4.24,2.14-5.55.4-9a3.15,3.15,0,0,1-.31-1.15,3,3,0,0,0-.31-1.15,24.72,24.72,0,0,1-1.5-3.79,8.44,8.44,0,0,0-.73-1.75,1.72,1.72,0,0,1-.28-1,3.19,3.19,0,0,0-.33-1.26,23.87,23.87,0,0,1-.91-2.55c-.92-3.05-2.61-8.86-3-10.41-.21-.78-.53-1.9-.71-2.49a8,8,0,0,1-.33-1.84,1.29,1.29,0,0,0-.31-.94A3,3,0,0,1,18,100a29.68,29.68,0,0,0-.6-2.91c-.22-.88-.48-2.15-.58-2.83a9.13,9.13,0,0,0-.48-1.94,10.34,10.34,0,0,1-.51-2.11c-.12-.78-.37-2.25-.56-3.27-4.7-25.37-5.87-45.77-3.52-61.48.19-1.26.44-3,.56-3.88a5.36,5.36,0,0,1,.54-1.92,2.08,2.08,0,0,0,.32-1.16A4.07,4.07,0,0,1,13.49,17c.19-.39.51-1,.71-1.4a3.56,3.56,0,0,0,.35-1.24c0-.29.16-.53.35-.53s.35-.32.35-.71.16-.7.36-.7A.37.37,0,0,0,16,12c0-.91,2.21-3.48,3.6-4.19,1.71-.88,4.86-.83,8.43.11M233.66,155.16a26.46,26.46,0,0,0-6.35,2c-.68.3-1.95.82-2.82,1.17-5.68,2.24-18.28,9.3-24.57,13.75-9.3,6.58-10.41,7.49-12.12,10q-4.61,6.78-1.68,8.37c1.42.77,10.16.88,13.49.17,1.17-.25,2.84-.59,3.71-.76,12.5-2.37,23.47-6.48,31.23-11.68,5.55-3.71,6.38-5.31,6.25-12.1-.2-10.1-1.32-11.82-7.14-10.94M64.72,156a3.94,3.94,0,0,0-1,1.68c-.11.53-.38,1.51-.58,2.18-.81,2.64-.54,10.94.42,12.89a19.26,19.26,0,0,0,6.4,6.49,80.29,80.29,0,0,0,8.45,4.17,99.18,99.18,0,0,0,28.39,7.49c1.55.18,3.33.44,4,.57,1.45.31,6.72-.49,7.77-1.17,2.07-1.35-1.14-8.06-5.62-11.75-1.6-1.32-10.42-7.39-10.73-7.39a17.5,17.5,0,0,1-2.19-1.34A155.47,155.47,0,0,0,74.88,157c-4.76-1.72-8.92-2.11-10.16-1m79.15,57.5c-7.15.31-9.17,1.58-10.06,6.32-2.28,12.19,3,21.38,15,26.13,4.22,1.67,4.89,2.68,4.77,7.25-.1,4.13-.48,6-1.26,6.12a4.21,4.21,0,0,0-2.64,2.53c-1.36,2.66-1.32,2.65-9.47,2.53-6.68-.1-8.85-.33-10.82-1.14-1.45-.59-3.51-.72-7.61-.48-4.57.26-5.06.55-3.2,1.88,1.34.95,2.14,2.7,2.7,5.94.49,2.84.8,3.25,2.49,3.26,1.2,0,1.52.46,2.27,3.18,3.19,11.68,5.84,11.3,5.55-.8-.2-8.12-.31-7.87,3.28-7.34a143.62,143.62,0,0,0,40.18,0c4.49-.57,4.31-.88,4.23,7.32-.06,5.75,0,6.54.63,7.74,1.08,2.08,1.32,1.86,3.27-2.94,2.86-7,2.84-7,4.15-7,1.86-.05,2.07-.38,3.27-5.08.23-.87.54-2.06.71-2.64s.4-1.58.53-2.21l.24-1.33h-5.57c-5.28.18-5.6.22-6.41,1s-1.07.79-7.81,1h-7l-1.24-1.18a7.06,7.06,0,0,1-1.83-2.18,3.09,3.09,0,0,0-1.79-1.67c-1.49-.54-1.6-.92-1.6-5.85,0-5.22,0-5.33,3.58-7.15a24.62,24.62,0,0,0,6.56-4.32,18.53,18.53,0,0,0,3.26-3.67,5,5,0,0,1,.66-1.15c3.23-4.59,3.33-17.64.16-21.09-2.92-3.18-9.23-3.82-29.22-3m-3.64,61.65c.2,2.45,5,4.14,5.81,2s3.28-1.74,4.81.66c2.83,4.44,3.61,4.55,7.06.91l2.38-2.5,1.24.74c2.74,1.61,5.62.65,5.38-1.79l-.11-1.48-13.34,1H140.12l.11.43"/><path id="path2" class="cls-1" d="M28.31,29.67c0,.2.32.36.7.36s.71.16.71.35.31.35.69.35a1.16,1.16,0,0,1,.9.36,1.19,1.19,0,0,0,.9.35c.38,0,.69.16.69.35s.31.35.7.35.71.16.71.36.32.35.7.35.71.16.71.35.32.36.7.36.71.15.71.35.32.35.71.35.7.16.7.35.32.36.71.36.7.14.7.31.48.5,1.06.75,1.06.57,1.06.74a.35.35,0,0,0,.37.31,9.92,9.92,0,0,1,2.2,1.24,9.71,9.71,0,0,0,2.2,1.23c.2,0,.6.32.88.71s.67.71.87.71A5.12,5.12,0,0,1,50.19,42a5.63,5.63,0,0,0,1.5,1.06,5.14,5.14,0,0,1,1.37,1.06,4.53,4.53,0,0,0,1.45,1.06,3.7,3.7,0,0,1,1.27,1,43.12,43.12,0,0,0,4.93,4.08c.71.55,2.25,1.9,3.41,3s2.81,2.56,3.65,3.23c2.65,2.13,12,11.65,12,12.22a1.88,1.88,0,0,1-1.38,1.54.37.37,0,0,0-.38.35c0,.2-.24.36-.53.36s-.53.16-.53.35a.38.38,0,0,1-.39.35,22.28,22.28,0,0,0-4.2,2.83A13.17,13.17,0,0,1,71,75.54,13,13,0,0,0,69.24,77c-.91,1-2.15,1.51-2.58,1.08a1.22,1.22,0,0,0-.67-.39c-.41,0-.34,1.21.1,1.65.27.27-.77,1.39-3.62,3.92a112.15,112.15,0,0,0-11.74,11.9,155.92,155.92,0,0,0-12.1,15.71c-2.86,4.23-3.92,4.72-4,1.84,0-.44-.17-.79-.36-.79s-.36-.48-.36-1.06-.15-1.06-.35-1.06-.35-.39-.35-.86a1.5,1.5,0,0,0-.35-1.08,1.42,1.42,0,0,1-.36-1.06,1.46,1.46,0,0,0-.35-1.06,1.44,1.44,0,0,1-.35-1.06,1.39,1.39,0,0,0-.36-1.05,1.46,1.46,0,0,1-.35-1.06,1.44,1.44,0,0,0-.35-1.06,1.81,1.81,0,0,1-.35-1.24A1.72,1.72,0,0,0,30.07,99a1.81,1.81,0,0,1-.35-1.24,1.83,1.83,0,0,0-.31-1.21,2.21,2.21,0,0,1-.5-1.16c-.1-.54-.36-1.57-.57-2.3-.89-3.09-1.14-4-1.25-4.68s-1.1-5-1.6-6.88c-.33-1.26-.49-2-1.1-5.11-2.11-10.79-2.47-14-2.66-23.8-.2-10.43,0-11.56,2.07-11.89,1.55-.25,1.79-.83.34-.83-1,0-1,0-.74-1.86a16.08,16.08,0,0,1,1.37-5,4.37,4.37,0,0,0,.48-1.24c.42-1.75,3.06-3.58,3.06-2.12m244.58.24a2,2,0,0,1,.65,1.21,1.07,1.07,0,0,0,.35.85,1.48,1.48,0,0,1,.35,1.08c0,.47.16.86.35.86s.36.39.36.86a1.5,1.5,0,0,0,.35,1.08,2.66,2.66,0,0,1,.35,1.61c0,.76.16,1.39.36,1.39s.35.24.35.53-.33.53-.86.53a1.48,1.48,0,0,0-1.08.35c-.13.2.17.35.67.35,2,0,2.66,5.86,1.93,17.12-.2,3.1-.42,6.47-.48,7.48a14.55,14.55,0,0,1-.53,3.07,5.63,5.63,0,0,0-.31,1.87,3.87,3.87,0,0,1-.19,1.45,10.71,10.71,0,0,0-.39,1.94,113.37,113.37,0,0,1-2.67,12.32c-.21.83-.46,2-.57,2.65a2.65,2.65,0,0,1-.5,1.35,1.86,1.86,0,0,0-.31,1.23,4.49,4.49,0,0,1-.32,1.66A14.38,14.38,0,0,0,270,95a15.59,15.59,0,0,1-.74,2.2,3.75,3.75,0,0,0-.32,1.48,1.48,1.48,0,0,1-.35,1.08,1.42,1.42,0,0,0-.36,1.06,1.46,1.46,0,0,1-.35,1.06,1.81,1.81,0,0,0-.35,1.24,1.72,1.72,0,0,1-.36,1.23,1.46,1.46,0,0,0-.35,1.06,1.46,1.46,0,0,1-.35,1.06,1.4,1.4,0,0,0-.35,1.06,1.39,1.39,0,0,1-.36,1,1.46,1.46,0,0,0-.35,1.06,1.44,1.44,0,0,1-.35,1.06,1.42,1.42,0,0,0-.36,1.06,1.42,1.42,0,0,1-.35,1.06,1.5,1.5,0,0,0-.35,1.08c0,1.55-.95.92-2.85-1.87s-5.29-7.4-6.43-8.74c-.33-.39-1.27-1.59-2.1-2.68A127.91,127.91,0,0,0,239.34,86c-6.83-6.69-7.32-7.36-6.07-8.37a6.18,6.18,0,0,0,.75-1.23,8.3,8.3,0,0,1,.7-1.24,8.28,8.28,0,0,0,.71-1.23,9.37,9.37,0,0,1,.7-1.24,6.42,6.42,0,0,0,.62-1,15.18,15.18,0,0,1,1.94-3,2.49,2.49,0,0,0,.62-1,2.79,2.79,0,0,1,.71-1.06,2.56,2.56,0,0,0,.7-1.22c0-.25.13-.46.28-.46s.55-.47.89-1a10.83,10.83,0,0,1,1.05-1.5,20.69,20.69,0,0,0,1.37-1.86c1.46-2.21,10.76-11.47,11.51-11.47A6.14,6.14,0,0,0,257.3,48a11.53,11.53,0,0,1,2.21-1.5c.53-.24,1-.55,1-.7s.24-.27.53-.27c.53,0,.7-.41.33-.79s-3,1.22-3,1.73c0,.25-.2.37-.45.28a1.42,1.42,0,0,0-1.15.46,21.89,21.89,0,0,1-1.8,1.42,23.24,23.24,0,0,0-2.33,1.93c-.67.63-1.92,1.78-2.79,2.56a20.2,20.2,0,0,0-2.43,2.64,20.26,20.26,0,0,1-2.11,2.47,37.07,37.07,0,0,0-2.82,3.35c-.87,1.17-1.86,2.43-2.2,2.81a2.46,2.46,0,0,0-.62,1,2.85,2.85,0,0,1-.7,1.06,2.6,2.6,0,0,0-.71,1.22.42.42,0,0,1-.35.46.37.37,0,0,0-.35.39,4.13,4.13,0,0,1-.73,1.41c-.4.56-.63,1.18-.51,1.38s0,.36-.24.36-.94,1-1.52,2.29a8.23,8.23,0,0,1-1.33,2.29c-.14,0-.26.25-.26.55,0,1.5-1.36,1.76-2.47.48-.18-.2-3.54-2.56-5.93-4.16a19.59,19.59,0,0,1-2-1.5,2.47,2.47,0,0,0-1-.66c-.55,0-2-1.73-2-2.38s13-13.66,17-16.94c2.84-2.31,3.71-3,4.95-4.1.42-.36,1.32-1.07,2-1.59s1.69-1.36,2.25-1.9a4.13,4.13,0,0,1,1.38-1,1.88,1.88,0,0,0,.92-.62,6.81,6.81,0,0,1,1.54-1.12c.53-.27,1-.63,1-.79s.18-.29.41-.29a4.68,4.68,0,0,0,1.56-.88A6,6,0,0,1,254,38.5a9.91,9.91,0,0,0,1.77-1.06,7.31,7.31,0,0,1,1.88-1.06.54.54,0,0,0,.47-.27c.13-.29,1.9-1.26,6.12-3.35,5.15-2.56,5.53-2.73,6-2.73.27,0,.49-.16.49-.36,0-.56,1.47-.4,2.18.24m-247,11c0,.43,1.26.73,2.12.5,1.2-.32.77-.81-.71-.81-.78,0-1.41.14-1.41.31m244.87,0c0,.43,1.26.73,2.12.5,1.21-.32.78-.81-.71-.81-.77,0-1.41.14-1.41.31M29,41.67c0,.2.4.35.89.35s.88-.15.88-.35-.4-.35-.88-.35-.89.16-.89.35m239.06,0A1.45,1.45,0,0,1,267,42c-.48,0-.86.16-.86.36s-.21.35-.46.35c-.65,0-2.36.83-2.36,1.15,0,.14.23.26.52.26s.53-.16.53-.35.4-.35.88-.35.89-.16.89-.36.39-.35.88-.35.88-.16.88-.35.56-.36,1.23-.36,1.24-.15,1.24-.35-.47-.35-1-.35a1.82,1.82,0,0,0-1.25.35m-236.94.71c0,.19.32.35.71.35s.7.16.7.35.4.36.89.36.88.15.88.35.23.35.52.35a5.59,5.59,0,0,1,1.77.71c1.41.79,1.94.88,1.94.33,0-.37-2-1.26-2.56-1.12-.14,0-.26-.08-.26-.27s-.32-.35-.71-.35-.7-.16-.7-.36-.32-.35-.71-.35-.7-.16-.7-.35S32.5,42,32,42s-.88.16-.88.36m231,1.65c-.4.4-.25.82.3.82.29,0,.53-.15.53-.33,0-.45-.55-.77-.83-.49M38.78,45.44c-.41.4-.26.82.29.82.29,0,.53.16.53.35s.21.35.46.35a2.51,2.51,0,0,1,1.22.71,3.11,3.11,0,0,0,1,.71c.68,0,8.3,7,9.74,9,.57.78,1.54,2,2.16,2.67a20.15,20.15,0,0,1,1.47,1.8,20.75,20.75,0,0,0,2.78,3.78,1.57,1.57,0,0,1,.58.92,1.94,1.94,0,0,0,.65,1,7.84,7.84,0,0,1,1.32,2c.37.77.79,1.4.94,1.4s.26.25.26.54a.53.53,0,0,0,1.06,0c0-.29-.16-.53-.35-.53s-.35-.21-.35-.47a2.32,2.32,0,0,0-.62-1.14,9.61,9.61,0,0,1-1.12-1.66c-.28-.53-.63-1-.79-1s-.3-.21-.3-.46a2.38,2.38,0,0,0-.62-1.15,22.18,22.18,0,0,1-1.5-1.92,43.92,43.92,0,0,0-3-3.84c-.58-.7-1.49-1.84-2-2.54a44.6,44.6,0,0,0-6.46-6.5,28,28,0,0,1-2.18-1.82,4.76,4.76,0,0,0-1.51-1c-.39-.13-.71-.36-.71-.52s-.48-.48-1.06-.72-1.06-.58-1.06-.75c0-.37-.49-.41-.82-.07M63,72.81c.12.24.31.72.43,1.06s.36.62.53.62.31.31.31.7.16.71.35.71.35.31.35.7.24.71.53.71c.72,0,.7-.08-.59-2.68-.9-1.79-2.7-3.52-1.91-1.82m27.89,47.94c7.52,2.64,13.43,10.1,13.42,16.93,0,7.19-4.32,9.14-20.14,9.14-10.17,0-12.5-.77-14.69-4.85-5.79-10.82,9.06-25.54,21.41-21.22m126.85-.2c11.1,2.4,17.83,17,10.94,23.71-4.38,4.27-26.55,3.51-31.33-1.08-1.9-1.83-3.16-7.71-1.82-8.53a1.19,1.19,0,0,0,.35-.9c0-2.22,5.9-9.37,9.14-11a41.05,41.05,0,0,1,4.8-2.28c1.12-.39,5.87-.32,7.92.13M239,155.06c1.88,1.73,3.34,12.43,2.23,16.26-1.22,4.2-8.37,9.57-17.66,13.26-1.55.61-3.1,1.26-3.44,1.44a3.41,3.41,0,0,1-1.3.32,1.2,1.2,0,0,0-.91.35,1.44,1.44,0,0,1-1.06.35,1.39,1.39,0,0,0-1.05.36,1.81,1.81,0,0,1-1.24.35,1.78,1.78,0,0,0-1.23.35,1.76,1.76,0,0,1-1.24.35,1.82,1.82,0,0,0-1.21.32,3.19,3.19,0,0,1-1.52.51c-.73.1-2.12.36-3.09.58-16.38,3.64-24.27,2.3-21.42-3.64.2-.42.58-1.28.83-1.91s.59-1.15.74-1.15.27-.24.27-.53.15-.53.35-.53a.35.35,0,0,0,.35-.35c0-.59,2.84-3.32,5.47-5.27,1.36-1,2.75-2.06,3.09-2.34a2.21,2.21,0,0,1,1-.51.35.35,0,0,0,.35-.35c0-.19.23-.35.5-.35a.68.68,0,0,0,.62-.3,79.22,79.22,0,0,1,7.89-5.35,9.39,9.39,0,0,0,1.69-1c2.62-1.77,11.36-6.41,12.09-6.41.27,0,.5-.16.5-.35s.22-.35.49-.35a6.62,6.62,0,0,0,1.86-.67c.74-.36,2.15-1,3.12-1.45s2-.92,2.38-1.1a3.4,3.4,0,0,1,1.3-.31,1.2,1.2,0,0,0,.91-.35c.11-.2.72-.36,1.34-.36a3.72,3.72,0,0,0,1.65-.35c1.1-.71,4.42-.42,5.38.48m-167.26.37a28.67,28.67,0,0,1,4.07,1.3l1.59.62c.44.17,1.49.65,2.33,1.06a7.69,7.69,0,0,0,2,.76c.27,0,.49.16.49.35s.22.35.49.35c.92,0,12.51,6.19,16,8.54a7,7,0,0,0,1.85,1,.37.37,0,0,1,.38.35.41.41,0,0,0,.46.36,2.56,2.56,0,0,1,1.22.7,3.11,3.11,0,0,0,1,.71c1.3,0,11.39,8,13.22,10.45q9.42,12.75-12,9.32c-4.14-.67-6.15-1-7.94-1.43-1-.22-2.36-.48-3.09-.58a3.14,3.14,0,0,1-1.52-.51,1.52,1.52,0,0,0-1.06-.32,3.89,3.89,0,0,1-1.48-.31A31.64,31.64,0,0,0,86.53,187c-21.55-6.64-27.82-14.49-23.39-29.3.84-2.81,3.75-3.58,8.64-2.28"/><path id="path3" class="cls-1" d="M26.09,30.12a5,5,0,0,0-.84,1.67A4.37,4.37,0,0,1,24.77,33a16.08,16.08,0,0,0-1.37,5c-.24,1.86-.24,1.86.74,1.86,1.45,0,1.21.58-.34.83-2.07.33-2.27,1.46-2.07,11.89.19,9.78.55,13,2.66,23.8.61,3.1.77,3.85,1.1,5.11.5,1.9,1.47,6.09,1.6,6.88s.36,1.59,1.25,4.68c.21.73.47,1.76.57,2.3a2.21,2.21,0,0,0,.5,1.16,1.83,1.83,0,0,1,.31,1.21A1.81,1.81,0,0,0,30.07,99a1.72,1.72,0,0,1,.36,1.23,1.81,1.81,0,0,0,.35,1.24,1.44,1.44,0,0,1,.35,1.06,1.46,1.46,0,0,0,.35,1.06,1.39,1.39,0,0,1,.36,1.05,1.44,1.44,0,0,0,.35,1.06,1.46,1.46,0,0,1,.35,1.06,1.42,1.42,0,0,0,.36,1.06,1.5,1.5,0,0,1,.35,1.08c0,.47.16.86.35.86s.35.48.35,1.06.16,1.06.36,1.06.36.35.36.79c0,2.88,1.1,2.39,4-1.84a155.92,155.92,0,0,1,12.1-15.71,112.15,112.15,0,0,1,11.74-11.9c2.85-2.53,3.89-3.65,3.62-3.92-.44-.44-.51-1.65-.1-1.65a1.22,1.22,0,0,1,.67.39c.43.43,1.67-.08,2.58-1.08A13,13,0,0,1,71,75.54a13.17,13.17,0,0,0,1.41-1.05,22.28,22.28,0,0,1,4.2-2.83.38.38,0,0,0,.39-.35c0-.19.24-.35.53-.35s.53-.16.53-.36a.37.37,0,0,1,.38-.35,1.88,1.88,0,0,0,1.38-1.54c0-.57-9.4-10.09-12-12.22-.84-.67-2.48-2.13-3.65-3.23s-2.7-2.46-3.41-3a43.12,43.12,0,0,1-4.93-4.08,3.7,3.7,0,0,0-1.27-1,4.53,4.53,0,0,1-1.45-1.06,5.14,5.14,0,0,0-1.37-1.06A5.63,5.63,0,0,1,50.19,42,5.12,5.12,0,0,0,48.59,41c-.2,0-.59-.32-.87-.71s-.68-.71-.88-.71a9.71,9.71,0,0,1-2.2-1.23,9.92,9.92,0,0,0-2.2-1.24.35.35,0,0,1-.37-.31c0-.17-.48-.5-1.06-.74S40,35.45,40,35.28s-.31-.31-.7-.31-.71-.16-.71-.36-.32-.35-.7-.35-.71-.16-.71-.35-.32-.35-.71-.35-.7-.16-.7-.36-.32-.35-.71-.35-.7-.16-.7-.35-.32-.36-.71-.36-.7-.15-.7-.35-.31-.35-.69-.35a1.19,1.19,0,0,1-.9-.35,1.16,1.16,0,0,0-.9-.36c-.38,0-.69-.16-.69-.35S29.4,30,29,30s-.7-.16-.7-.36c0-.66-1.59-.34-2.22.45m244.62-.45c0,.2-.22.36-.49.36-.5,0-.88.17-6,2.73-4.22,2.09-6,3.06-6.12,3.35a.54.54,0,0,1-.47.27,7.31,7.31,0,0,0-1.88,1.06A9.91,9.91,0,0,1,254,38.5a6,6,0,0,0-1.38.88,4.68,4.68,0,0,1-1.56.88c-.23,0-.41.13-.41.29s-.44.52-1,.79a6.81,6.81,0,0,0-1.54,1.12,1.88,1.88,0,0,1-.92.62,4.13,4.13,0,0,0-1.38,1c-.56.54-1.58,1.39-2.25,1.9s-1.58,1.23-2,1.59c-1.24,1.07-2.11,1.79-4.95,4.1-4.05,3.28-17,16.2-17,16.94S221,71,221.58,71a2.47,2.47,0,0,1,1,.66,19.59,19.59,0,0,0,2,1.5c2.39,1.6,5.75,4,5.93,4.16,1.11,1.28,2.47,1,2.47-.48,0-.3.12-.55.26-.55A8.23,8.23,0,0,0,234.55,74c.58-1.25,1.26-2.28,1.52-2.29s.36-.17.24-.36.11-.82.51-1.38a4.13,4.13,0,0,0,.73-1.41.37.37,0,0,1,.35-.39.42.42,0,0,0,.35-.46,2.6,2.6,0,0,1,.71-1.22,2.85,2.85,0,0,0,.7-1.06,2.46,2.46,0,0,1,.62-1c.34-.38,1.33-1.64,2.2-2.81a37.07,37.07,0,0,1,2.82-3.35,20.26,20.26,0,0,0,2.11-2.47,20.2,20.2,0,0,1,2.43-2.64c.87-.78,2.12-1.93,2.79-2.56A23.24,23.24,0,0,1,255,48.65a21.89,21.89,0,0,0,1.8-1.42,1.42,1.42,0,0,1,1.15-.46c.25.09.45,0,.45-.28,0-.51,2.66-2.05,3-1.73s.2.79-.33.79c-.29,0-.53.12-.53.27s-.44.46-1,.7A11.53,11.53,0,0,0,257.3,48a6.14,6.14,0,0,1-1.48,1.06c-.75,0-10,9.26-11.51,11.47a20.69,20.69,0,0,1-1.37,1.86,10.83,10.83,0,0,0-1.05,1.5c-.34.58-.74,1-.89,1s-.28.21-.28.46a2.56,2.56,0,0,1-.7,1.22,2.79,2.79,0,0,0-.71,1.06,2.49,2.49,0,0,1-.62,1,15.18,15.18,0,0,0-1.94,3,6.42,6.42,0,0,1-.62,1,9.37,9.37,0,0,0-.7,1.24,8.28,8.28,0,0,1-.71,1.23,8.3,8.3,0,0,0-.7,1.24,6.18,6.18,0,0,1-.75,1.23c-1.25,1-.76,1.68,6.07,8.37a127.91,127.91,0,0,1,13.29,14.53c.83,1.09,1.77,2.29,2.1,2.68,1.14,1.34,4.57,6,6.43,8.74s2.85,3.42,2.85,1.87a1.5,1.5,0,0,1,.35-1.08,1.42,1.42,0,0,0,.35-1.06,1.42,1.42,0,0,1,.36-1.06,1.44,1.44,0,0,0,.35-1.06,1.46,1.46,0,0,1,.35-1.06,1.39,1.39,0,0,0,.36-1,1.4,1.4,0,0,1,.35-1.06,1.46,1.46,0,0,0,.35-1.06,1.46,1.46,0,0,1,.35-1.06,1.72,1.72,0,0,0,.36-1.23,1.81,1.81,0,0,1,.35-1.24,1.46,1.46,0,0,0,.35-1.06,1.42,1.42,0,0,1,.36-1.06,1.48,1.48,0,0,0,.35-1.08,3.75,3.75,0,0,1,.32-1.48A15.59,15.59,0,0,0,270,95a14.38,14.38,0,0,1,.74-2.2,4.49,4.49,0,0,0,.32-1.66,1.86,1.86,0,0,1,.31-1.23,2.65,2.65,0,0,0,.5-1.35c.11-.63.36-1.82.57-2.65a113.37,113.37,0,0,0,2.67-12.32,10.71,10.71,0,0,1,.39-1.94,3.87,3.87,0,0,0,.19-1.45,5.63,5.63,0,0,1,.31-1.87,14.55,14.55,0,0,0,.53-3.07c.06-1,.28-4.38.48-7.48.73-11.26.07-17.12-1.93-17.12-.5,0-.8-.15-.67-.35a1.48,1.48,0,0,1,1.08-.35c.53,0,.86-.21.86-.53s-.16-.53-.35-.53-.36-.63-.36-1.39a2.66,2.66,0,0,0-.35-1.61,1.5,1.5,0,0,1-.35-1.08c0-.47-.16-.86-.36-.86s-.35-.39-.35-.86a1.48,1.48,0,0,0-.35-1.08,1.07,1.07,0,0,1-.35-.85,2,2,0,0,0-.65-1.21c-.71-.64-2.18-.8-2.18-.24M65,32.67a7.67,7.67,0,0,0,1.38,1.24c.1,0-.36-.56-1-1.24A7.42,7.42,0,0,0,64,31.44c-.09,0,.37.55,1,1.23M28.66,40.92c0,.43-1.25.73-2.11.5-1.21-.32-.78-.81.7-.81.78,0,1.41.14,1.41.31m244.88,0c0,.43-1.26.73-2.12.5-1.21-.32-.78-.81.7-.81.78,0,1.42.14,1.42.31m-242.76.75c0,.2-.4.35-.88.35s-.89-.15-.89-.35.4-.35.89-.35.88.16.88.35m239.58,0c0,.2-.56.35-1.24.35s-1.23.16-1.23.36-.4.35-.88.35-.88.16-.88.35-.4.36-.89.36-.88.15-.88.35-.24.35-.53.35-.53-.12-.52-.26c0-.32,1.71-1.15,2.36-1.15.25,0,.46-.16.46-.35s.38-.36.86-.36a1.45,1.45,0,0,0,1.08-.35,1.82,1.82,0,0,1,1.25-.35c.57,0,1,.16,1,.35M32.9,42.38c0,.19.31.35.7.35s.71.16.71.35.32.36.7.36.71.15.71.35.12.32.26.27c.51-.14,2.56.75,2.56,1.12,0,.55-.53.46-1.94-.33a5.59,5.59,0,0,0-1.77-.71c-.29,0-.52-.16-.52-.35s-.4-.35-.88-.35-.89-.16-.89-.36-.31-.35-.7-.35-.71-.16-.71-.35.4-.36.88-.36.89.16.89.36M263,44.52c0,.18-.24.33-.53.33-.55,0-.7-.42-.3-.82s.83,0,.83.49M78.75,46.35c1.46,1.55,1.78,1.83,1.78,1.57a18.85,18.85,0,0,0-1.68-1.68l-1.67-1.57,1.57,1.68M39.6,45.51c0,.17.48.51,1.06.75s1.06.57,1.06.72.32.39.71.52a4.76,4.76,0,0,1,1.51,1,28,28,0,0,0,2.18,1.82,44.6,44.6,0,0,1,6.46,6.5c.51.7,1.42,1.84,2,2.54a43.92,43.92,0,0,1,3,3.84,22.18,22.18,0,0,0,1.5,1.92,2.38,2.38,0,0,1,.62,1.15c0,.25.13.46.3.46s.51.44.79,1a9.61,9.61,0,0,0,1.12,1.66,2.32,2.32,0,0,1,.62,1.14c0,.26.15.47.35.47s.35.24.35.53a.53.53,0,0,1-1.06,0c0-.29-.12-.53-.26-.54s-.57-.63-.94-1.4a7.84,7.84,0,0,0-1.32-2,1.94,1.94,0,0,1-.65-1,1.57,1.57,0,0,0-.58-.92,20.75,20.75,0,0,1-2.78-3.78A20.15,20.15,0,0,0,54.18,60c-.62-.69-1.59-1.89-2.16-2.67-1.44-2-9.06-9-9.74-9a3.11,3.11,0,0,1-1-.71A2.51,2.51,0,0,0,40.06,47c-.25,0-.46-.16-.46-.35s-.24-.35-.53-.35c-.55,0-.7-.42-.29-.82s.82-.3.82.07M64.94,74.63c1.29,2.6,1.31,2.68.59,2.68-.29,0-.53-.32-.53-.71s-.15-.7-.35-.7-.35-.32-.35-.71-.14-.7-.31-.7-.41-.28-.53-.62-.31-.82-.43-1.06c-.79-1.7,1,0,1.91,1.82m175.86,85.6c0,.68.08,1,.16.61a2.84,2.84,0,0,0,0-1.23c-.08-.34-.16-.06-.16.62M62,166.93c0,1.65.06,2.32.14,1.5a21.45,21.45,0,0,0,0-3c-.08-.82-.14-.15-.14,1.5m179.58,1.59c0,1,.07,1.32.15.79a6.55,6.55,0,0,0,0-1.77c-.09-.43-.16,0-.15,1"/><path id="path4" class="cls-1" d="M18.06,1.93C11.29,4.48,7.37,12.86,5.19,29.42c-.46,3.5-.47,20.15,0,26.38A293.06,293.06,0,0,0,9.41,88.07c.2,1,.52,2.56.72,3.53s.51,2.48.72,3.35l.69,3c.17.78.49,2.13.71,3s.48,2.1.59,2.74a2.65,2.65,0,0,0,.5,1.34,1.47,1.47,0,0,1,.31,1,5.25,5.25,0,0,0,.32,1.65c.17.45.51,1.53.75,2.4s.55,2,.7,2.47.62,2.08,1,3.53a33.14,33.14,0,0,0,1.1,3.26,3.45,3.45,0,0,1,.32,1.3,1.2,1.2,0,0,0,.35.91,1.46,1.46,0,0,1,.35,1.06,1.44,1.44,0,0,0,.31,1,2.11,2.11,0,0,1,.49,1.17c.1.54.75,2.54,1.45,4.45,1.58,4.29,1.58,4.9.08,8.09-.65,1.4-1.55,3.34-2,4.31l-1.62,3.63a13.25,13.25,0,0,0-.84,2.14,9.6,9.6,0,0,1-.71,1.74,8,8,0,0,0-.71,1.83,2.88,2.88,0,0,1-.31,1,29.9,29.9,0,0,0-1.45,3.61c-.23.68-.56,1.55-.72,1.94-.36.85-2.06,6-3.16,9.69C7.79,172.61,5,184.22,4.09,189.69c-2.22,12.78-2.6,16.44-2.59,25.05,0,9.76.75,14.65,3.39,22.23a82.07,82.07,0,0,0,5.63,11.71,9.42,9.42,0,0,1,1,1.69A13.29,13.29,0,0,0,13.33,253c.11.1.89,1.21,1.73,2.47s1.63,2.38,1.74,2.47.76.9,1.43,1.77a123.24,123.24,0,0,0,16.62,17.76c2.64,2.36,5.26,4.67,5.82,5.14s1.6,1.34,2.28,1.94,1.79,1.49,2.45,2,2,1.53,3,2.31c5,4,21.76,15.34,22.63,15.34a21.36,21.36,0,0,1,2,1.11c4.66,2.77,15.36,8.15,21.28,10.7l3,1.32c1.48.67,2,.88,4.23,1.78,1.45.58,2.23.87,3.53,1.32.68.23,1.55.55,1.94.7,7.55,3,21.63,7,28.49,8.1,1.31.2,3.41.55,4.67.76,2.31.39,19.66.53,20.26.16a23.76,23.76,0,0,1,3.44-.54,142.48,142.48,0,0,0,25-5.25c2.51-.73,10.29-3.35,11.73-4,.44-.19,1.15-.48,1.59-.65s1.55-.65,2.47-1.06a15.53,15.53,0,0,1,1.84-.74c.8,0,19.33-9.05,23.21-11.35a18.66,18.66,0,0,1,1.84-1c.08,0,1.46-.82,3.08-1.81s3.46-2.11,4.1-2.48c.94-.54,5.5-3.59,9.38-6.29,1.38-1,8.15-6.12,8.33-6.35a6.51,6.51,0,0,1,.92-.73c4.5-3.08,16.92-15.7,22.2-22.55,1-1.26,1.94-2.53,2.17-2.82q2.94-3.82,2.94-4.23a.51.51,0,0,1,.33-.43c1.4-.5,8.59-14.61,10.67-20.94.72-2.19,1.82-6.45,2.34-9l.84-4.23c.6-3,.59-18,0-22.76-.75-6-1.13-8.74-1.48-10.85-.72-4.36-1.1-6.5-1.4-7.85l-1.24-5.65a156.29,156.29,0,0,0-4.44-15.87,66.48,66.48,0,0,0-2.43-6.71c-.45-1.07-.93-2.25-1.43-3.53-.78-2-2.55-5.78-5-10.66-3.34-6.65-3.35-6.81-1.14-13.68.87-2.72,1.77-5.58,2-6.35l.69-2.47c.17-.59.62-2,1-3.2a14,14,0,0,0,.72-2.89,1.29,1.29,0,0,1,.35-1,1.81,1.81,0,0,0,.35-1.24,1.77,1.77,0,0,1,.32-1.21,2.62,2.62,0,0,0,.49-1.34c.1-.63.37-1.79.59-2.56.4-1.36.71-2.57,1.39-5.38.37-1.51,1.31-5.28,1.81-7.24.66-2.57,1-4,1.4-5.73.22-1,.55-2.4.72-3.18,1-4.36,3.22-17.26,3.82-22.22.22-1.75.56-4.53.77-6.18s.43-7,.5-11.82l.11-8.82L297,41.14a178.62,178.62,0,0,1-2.11,23.11c-.42,3-1.57,9.61-2.07,12-.18.87-.6,2.94-.92,4.59s-.72,3.55-.9,4.23-.64,2.66-1.05,4.41-.89,3.77-1.08,4.5-.5,2-.71,2.82-.5,2-.66,2.56-.64,2.41-1.08,4.06c-1.68,6.43-4.83,17-7.62,25.76-1.24,3.86-1.17,4.19,2,10.45,2.74,5.49,5,10.21,5,10.55a12,12,0,0,0,.68,1.67c7.66,16.88,13.91,50.83,12.41,67.5-1.06,11.84-7.38,30.22-12,34.8a1.42,1.42,0,0,0-.43.83,2.13,2.13,0,0,1-.7,1,2.09,2.09,0,0,0-.71,1.06,2.09,2.09,0,0,1-.71,1.06,2.2,2.2,0,0,0-.7,1c0,.3-1,1.69-3.35,4.59-.59.72-1.7,2.12-2.47,3.11-1.73,2.19-6.88,7.77-10.24,11.1-5.11,5.06-8.21,7.94-8.54,7.94a3.26,3.26,0,0,0-1.19.92,29.19,29.19,0,0,1-2.74,2.39l-3.35,2.6c-1.73,1.35-3.95,2.93-4.87,3.47a10.67,10.67,0,0,0-1.3,1,2.26,2.26,0,0,1-1,.59,2.08,2.08,0,0,0-1,.7,2.09,2.09,0,0,1-1.06.71,2.12,2.12,0,0,0-1.06.7,2.35,2.35,0,0,1-.9.71,21.45,21.45,0,0,0-2.91,1.76,17.94,17.94,0,0,1-3,1.77.55.55,0,0,0-.48.29,11.55,11.55,0,0,1-2.41,1.49,22.56,22.56,0,0,0-2.47,1.41c-.17.2-5.46,2.95-10.59,5.5-3.08,1.54-11.39,5.33-13.58,6.19-1,.38-2.24.92-2.82,1.19-2.46,1.14-15.24,5.24-20.29,6.52-28.31,7.14-47.76,5.53-78.86-6.54-2.79-1.08-3.73-1.47-6.63-2.78-1.12-.51-2.1-.92-2.18-.92-.4,0-12.69-6-14.48-7-.58-.34-2.25-1.24-3.7-2s-2.73-1.46-2.83-1.57a14.4,14.4,0,0,0-1.85-1.07,5.07,5.07,0,0,1-1.67-1.14c0-.15-.17-.27-.37-.27a32.94,32.94,0,0,1-5.18-3.16,1.47,1.47,0,0,0-.74-.37,2.16,2.16,0,0,1-.95-.7,2.23,2.23,0,0,0-.92-.71,9.4,9.4,0,0,1-1.92-1.14l-2.43-1.68c-1.7-1.14-3.61-2.49-5-3.51-.78-.58-2-1.44-2.65-1.91a14.4,14.4,0,0,1-2.09-1.77,3,3,0,0,0-1.25-.93,4.81,4.81,0,0,1-1.62-1.27,8.32,8.32,0,0,0-1.79-1.5c-1.29-.51-20.42-18.86-20.42-19.59A10.37,10.37,0,0,0,20.8,262c-2.74-3.07-4-4.61-4-5a1.45,1.45,0,0,0-.54-.8c-.78-.65-5.48-7.83-7.16-10.93C3.27,234.4.46,219.54,2,207.44c.18-1.42.51-4.09.73-5.93a211.14,211.14,0,0,1,6.9-32.83c.71-2.42,1.41-4.87,1.56-5.45.35-1.32,1.36-4.35,1.76-5.3.17-.39.65-1.66,1.07-2.82s.91-2.39,1.09-2.73a2.82,2.82,0,0,0,.33-.95c0-.57,3.62-9,5.82-13.48,1.86-3.83,1.91-3.32-1.37-13.12-3.51-10.44-5.06-15.58-6.6-21.85-.18-.73-.48-2-.68-2.74-1.51-6.06-2.19-9.47-4-20.29-.67-3.88-1.45-9.2-1.73-11.82s-.72-6.58-1-8.82c-.63-5.75-.64-27.77,0-31.93C8.39,10.4,13.82,1.8,22,1.8,27.27,1.8,36.8,5,44,9.09c2.34,1.35,9.6,6.24,10.52,7.09.26.25,1.06.88,1.77,1.41s1.47,1.13,1.69,1.32,2.11,1.78,4.22,3.53c3.9,3.23,21.41,20.49,26.31,25.94C90,50,92.65,52.87,94.4,54.69L97.6,58l1.64-.22a21.71,21.71,0,0,0,3.28-.79c2.12-.73,8.31-2.32,13.46-3.46,6.87-1.52,12-2.27,22.76-3.37,2.66-.26,2.71-.28.82-.33-5.86-.13-23.21,2.69-32.14,5.23l-2.65.75c-.72.21-1.72.47-2.2.58a4.49,4.49,0,0,0-1.24.45,6.85,6.85,0,0,1-1.91.5l-1.55.24L95.37,55C94,53.57,91.6,51,90,49.25c-5.28-5.9-24-24.36-28.33-28C47.54,9.53,38.7,4.63,26.61,1.84c-2.11-.49-7.15-.44-8.55.09m262.71.14a21.7,21.7,0,0,0-3.27.44l-3.17.72a80.05,80.05,0,0,0-23.74,9.82l-2.51,1.63C236.41,22,220.72,37,207.91,53.15c-3.59,4.51-3.06,4.12-5.26,3.94a18.84,18.84,0,0,1-3.3-.55c-11.61-3.5-30.67-6.86-38-6.7-2.14,0-2.05.07,1.21.36a203.68,203.68,0,0,1,35.63,6.47c6.3,1.75,6.22,1.76,9.36-2.3.68-.87,1.57-2,2-2.47s1.74-2.07,2.93-3.52c9.14-11.15,22.63-24,32.48-30.91,1.06-.75,2-1.44,2.11-1.55a7.68,7.68,0,0,1,1.15-.68c.53-.28,1-.64,1-.8s.17-.29.39-.29a7.47,7.47,0,0,0,1.93-1c1.45-1,9.24-4.94,11.7-6,9.47-3.89,20.71-5.73,23.31-3.82,4.1,3,8,12.41,9.57,22.82l.69,4.76c.27,1.87.32,1.95.35.67a67.36,67.36,0,0,0-1.14-9q-2.5-11.75-6.84-17.44c-2.07-2.71-3.78-3.35-8.38-3.11M19.56,7.82C18.17,8.53,16,11.1,16,12a.37.37,0,0,1-.35.38c-.2,0-.36.31-.36.7s-.15.71-.35.71-.35.24-.35.53a3.56,3.56,0,0,1-.35,1.24c-.2.38-.52,1-.71,1.4a4.07,4.07,0,0,0-.35,1.51,2.08,2.08,0,0,1-.32,1.16,5.36,5.36,0,0,0-.54,1.92c-.12.87-.37,2.62-.56,3.88-2.35,15.71-1.18,36.11,3.52,61.48.19,1,.44,2.49.56,3.27a10.34,10.34,0,0,0,.51,2.11,9.13,9.13,0,0,1,.48,1.94,15.71,15.71,0,0,0,1.12,4.52c.15.14.17-.23.06-.81s-.79-3.84-1.5-7.23-1.42-7-1.59-8.12-.48-3-.69-4.23a228.76,228.76,0,0,1-2.85-27.75c-.86-17.15.63-29.92,4.37-37.53,2.71-5.49,4.88-6.3,12.42-4.64,8,1.77,20.21,9,30.33,18C65.29,32.57,76.85,44,84.06,51.73c3.52,3.79,9.31,10.1,10.44,11.39a3.45,3.45,0,0,0,2.44,1.32c1.39.15,1.39.15.21-.16a6.62,6.62,0,0,1-2.47-1.68L89.53,57C73.68,39.74,61.81,28.31,51.05,19.94c-1.78-1.38-7.83-5.44-8.11-5.44a9.06,9.06,0,0,1-1.69-1A49.05,49.05,0,0,0,31.66,9c-5.88-1.95-9.85-2.35-12.1-1.2M279.18,8c-1.5.22-4.72.9-5.64,1.19-.49.15-1.6.47-2.47.7a28.49,28.49,0,0,0-4.15,1.46l-1.68.67A119.19,119.19,0,0,0,254,17.8c-4.12,2.51-12.83,8.81-13.93,10.08-.1.11-1.21,1.07-2.47,2.13-2.93,2.45-14,13.49-17,17-1.26,1.46-2.37,2.73-2.47,2.83-.43.41-7,8.45-8.37,10.23-2.74,3.58-3.1,3.93-4.33,4.23-1.05.24-1.1.29-.31.32,1.28.05,2.4-.93,5.16-4.49,1.3-1.68,2.46-3.14,2.57-3.24s.74-.89,1.41-1.76,1.3-1.67,1.41-1.77,1.06-1.2,2.13-2.46,2-2.38,2.1-2.47,1.61-1.76,3.36-3.7A171.27,171.27,0,0,1,240.72,27.9l2.47-2a107.88,107.88,0,0,1,16.41-10.8A53.08,53.08,0,0,1,266.49,12a2.83,2.83,0,0,0,1-.31,17.89,17.89,0,0,1,3.26-1.27c.49-.13,1.44-.39,2.12-.59,6.46-1.86,10.8-2,12-.35,1.87,2.66,4.31,9.5,5.35,15.05,2.88,15.21.53,39.87-6.42,67.69a64,64,0,0,0-1.58,7.19c.1.1.28-.27.41-.83a14,14,0,0,1,.41-1.54c.1-.29.33-1.13.5-1.85s.47-2,.66-2.74c.87-3.48,1.12-4.5,1.43-5.91.19-.82.5-2.25.71-3.18s.46-2.31.57-3.08a4.62,4.62,0,0,1,.5-1.75,3.67,3.67,0,0,0,.32-1.78A3.64,3.64,0,0,1,288,75a5.17,5.17,0,0,0,.51-1.93c.11-.87.36-2.62.56-3.88,1.12-7,1.48-9.89,2.2-17.29.57-5.86.58-19.81,0-23.64-.25-1.65-.54-3.63-.65-4.41a4.47,4.47,0,0,0-.52-1.74,1.81,1.81,0,0,1-.31-1,8.25,8.25,0,0,0-.41-2,56.15,56.15,0,0,0-2-5.31C285.1,8.11,284,7.32,279.18,8M146.44,49.7c2.39.06,6.2.06,8.47,0s.32-.11-4.34-.11-6.51,0-4.13.11m-5.25,5.52a34.46,34.46,0,0,1-4.94.57c-5,.38-8.59.79-12.32,1.41-1.26.2-3,.46-3.88.57a5.05,5.05,0,0,0-1.92.52,3.42,3.42,0,0,1-1.66.32,2.48,2.48,0,0,0-1.54.35,2.17,2.17,0,0,1-1.41.35,2.1,2.1,0,0,0-1.41.36,1.46,1.46,0,0,1-1.06.35,5.6,5.6,0,0,0-1.66.31c-.44.18-1.52.51-2.4.74a15.34,15.34,0,0,0-2.2.75,3.07,3.07,0,0,1-1.15.32,2.94,2.94,0,0,0-1.15.32,9.62,9.62,0,0,1-1.28.54c-.37.12-.6.28-.51.37a19.05,19.05,0,0,0,3.49-.93,134.17,134.17,0,0,1,18-4.48c4.87-.9,6.29-1.12,7.33-1.12A33.08,33.08,0,0,0,133,56.5c12.25-1.78,36.76-.74,50,2.12a150.1,150.1,0,0,1,16.35,4.28,22.8,22.8,0,0,0,4.56,1.21c.11-.11-.31-.31-.92-.43a2.74,2.74,0,0,1-1.32-.53,1.16,1.16,0,0,0-.88-.31,3.28,3.28,0,0,1-1.3-.32,16.49,16.49,0,0,0-2.2-.74,14.38,14.38,0,0,1-2.2-.74,3.93,3.93,0,0,0-1.48-.32,1.45,1.45,0,0,1-1.08-.35,2.19,2.19,0,0,0-1.41-.35,2.18,2.18,0,0,1-1.39-.32,3.1,3.1,0,0,0-1.52-.5c-.73-.11-2.12-.37-3.09-.59a153,153,0,0,0-20.47-2.83c-5.39-.44-23.19-.86-23.49-.56M98.7,63.9c-.28.45.54.45,1.24,0,.43-.28.38-.34-.25-.35a1.34,1.34,0,0,0-1,.35M18.1,100.13a2,2,0,0,0,.33,1.35c.42.26.42-.78,0-1.77-.26-.59-.31-.53-.33.42m263.37.82a2.45,2.45,0,0,0-.06,1.28c.09.1.28-.32.42-.93a2.45,2.45,0,0,0,.06-1.28c-.09-.1-.28.32-.42.93M18.81,102.71a2.94,2.94,0,0,0,.33,1.41c.44.7.44-.54,0-1.58-.28-.65-.31-.63-.33.17m262,.71-.63,2.29c-.21.78-.66,2.29-1,3.35s-.81,2.66-1.06,3.53c-.91,3.24-1.16,4.08-1.42,4.77-.14.38-.61,1.89-1.05,3.35s-.91,3-1.06,3.35-.46,1.42-.7,2.29-.58,2.05-.75,2.61c-1,3.26-.07,8.19,2.38,12.8a148.33,148.33,0,0,1,13.19,34.34c4.65,20.31,6.05,40.63,3.56,51.87-.19.88-.45,2.07-.57,2.65a13.76,13.76,0,0,1-.5,1.76c-.15.39-.47,1.34-.7,2.12s-.58,1.77-.76,2.21l-.65,1.58c-5,12.44-18,29.82-30.23,40.5-7,6.11-23,17.83-26.08,19.08-.19.08-1.86,1-3.7,2.13a195.26,195.26,0,0,1-21.53,11l-2.82,1.22c-1.66.73-11.64,4.35-13.76,5l-3.35,1.05c-1.17.36-2.83.85-3.71,1.09s-2.07.57-2.67.75a7.91,7.91,0,0,1-1.83.33,1.3,1.3,0,0,0-1,.35,2.06,2.06,0,0,1-1.36.35,2.89,2.89,0,0,0-1.48.32,4.92,4.92,0,0,1-1.92.51c-.87.1-2.46.36-3.53.56a92.22,92.22,0,0,1-33.52.72l-3.7-.57a4.77,4.77,0,0,1-1.75-.51,2.31,2.31,0,0,0-1.31-.32,5.73,5.73,0,0,1-1.78-.32c-.44-.17-1.52-.51-2.4-.76-2.15-.6-8.12-2.47-9-2.82-.39-.16-2-.72-3.53-1.24-3-1-11.67-4.33-13.89-5.31-8.47-3.72-16.87-7.86-22.45-11.07a87.78,87.78,0,0,1-8.24-5,.53.53,0,0,0-.45-.28c-1,0-15-10.1-22-15.91A215.77,215.77,0,0,1,28,261.63a59.21,59.21,0,0,1-4.6-5.43c-.67-.87-1.31-1.67-1.42-1.76a103.92,103.92,0,0,1-5.84-8.83c-2.42-4.15-5.43-10.46-5.43-11.39a1.44,1.44,0,0,0-.29-.8,8,8,0,0,1-.75-1.92c-.25-.87-.58-1.9-.72-2.29-2.24-5.86-1.41-25,1.79-41.11.54-2.75.93-4.52,1.38-6.35.21-.87.53-2.22.7-3s.46-2,.65-2.65.68-2.43,1.08-3.9,1.36-4.64,2.13-7a30.17,30.17,0,0,0,1.26-4.53c-.09-.08-.25.15-.37.52a10.21,10.21,0,0,1-.54,1.28,2.9,2.9,0,0,0-.32,1.15,3.18,3.18,0,0,1-.32,1.15,14.38,14.38,0,0,0-.74,2.2,17,17,0,0,1-.74,2.2,3.75,3.75,0,0,0-.32,1.48,1.48,1.48,0,0,1-.35,1.08,1.75,1.75,0,0,0-.36,1.24,1.83,1.83,0,0,1-.31,1.21,2.73,2.73,0,0,0-.51,1.34c-.1.64-.36,1.87-.59,2.74s-.48,2.07-.57,2.65a9.38,9.38,0,0,1-.49,1.76,9.54,9.54,0,0,0-.49,1.94c-.09.68-.34,2-.55,3-2.47,11.7-3.95,30.26-2.92,36.7a27.85,27.85,0,0,0,1.12,5.29c.15.39.47,1.34.7,2.12s.57,1.77.75,2.2c.32.77.7,1.7,1.36,3.35.45,1.15,2.78,5.91,3.5,7.15,1.75,3,2.69,4.6,2.87,4.76s.76,1.06,1.46,2.13c4.63,7.08,16.65,19.9,25,26.68.68.55,1.31,1.09,1.41,1.21s1.6,1.36,3.35,2.76c4.3,3.46,4.08,3.29,5.47,4.26a12.93,12.93,0,0,1,1.41,1.08c.1.12,1.21.91,2.47,1.76s2.6,1.83,3,2.18a2.46,2.46,0,0,0,1,.64,2.43,2.43,0,0,1,1,.65,9,9,0,0,0,1.66,1.14c.53.28,2.07,1.23,3.43,2.12,3.56,2.32,8.46,5.12,14.22,8.14l3.88,2.05c.73.4,6.66,3.18,9,4.21,3.79,1.68,4.88,2.13,9.44,3.89,2.62,1,5,2,5.37,2.17a3.33,3.33,0,0,0,1.3.33,1.17,1.17,0,0,1,.91.35,1.2,1.2,0,0,0,.91.35,4,4,0,0,1,1.48.41c1.69.88,2,1,2.7,1a1.17,1.17,0,0,1,.91.36,1.81,1.81,0,0,0,1.24.35,1.79,1.79,0,0,1,1.23.35,1.42,1.42,0,0,0,1.06.35,1.42,1.42,0,0,1,1.06.36,1.44,1.44,0,0,0,1.06.35,1.46,1.46,0,0,1,1,.31,2.63,2.63,0,0,0,1.34.51c.64.1,1.87.37,2.74.59a98.13,98.13,0,0,0,32.11,2.17c2-.25,4.42-.53,5.29-.62a10.6,10.6,0,0,0,2.3-.49,10.63,10.63,0,0,1,2.29-.49c.87-.1,2.46-.35,3.53-.56s2.46-.48,3.09-.59a2.57,2.57,0,0,0,1.34-.52,1.3,1.3,0,0,1,1-.31,12.69,12.69,0,0,0,3.88-1.1,3.89,3.89,0,0,1,1.48-.31,1.5,1.5,0,0,0,1.08-.35,1.74,1.74,0,0,1,1.23-.36,1.81,1.81,0,0,0,1.24-.35,1.46,1.46,0,0,1,1.06-.35,1.42,1.42,0,0,0,1.06-.36,1.44,1.44,0,0,1,1.06-.35,1.43,1.43,0,0,0,1-.35,1.33,1.33,0,0,1,1-.35,2.2,2.2,0,0,0,1.13-.28,7.31,7.31,0,0,1,1.74-.73c.78-.25,1.73-.58,2.12-.74l5.12-2.07c5.72-2.3,15.78-6.93,16.23-7.47a15.5,15.5,0,0,1,2.12-1.18c4.8-2.4,20.7-12.21,21.52-13.28a19.48,19.48,0,0,1,1.94-1.43c9.14-6.18,23.5-19.62,28-26.24a6.51,6.51,0,0,1,.73-.92,93,93,0,0,0,6.5-8.91,85.13,85.13,0,0,0,7.69-14c.39-.87.85-1.86,1-2.2a3.4,3.4,0,0,0,.31-1.3,1.2,1.2,0,0,1,.35-.91,1.4,1.4,0,0,0,.36-1.06,1.43,1.43,0,0,1,.35-1,1.81,1.81,0,0,0,.35-1.24,1.82,1.82,0,0,1,.32-1.21,3.28,3.28,0,0,0,.52-1.52c.11-.73.39-2.44.63-3.8,1.07-6.15.37-23.31-1.44-34.93-.66-4.29-1.9-10.48-2.86-14.29-.21-.87-.48-2.1-.58-2.74a2.63,2.63,0,0,0-.51-1.34,1.51,1.51,0,0,1-.31-1.06,3.75,3.75,0,0,0-.32-1.48,33.14,33.14,0,0,1-1.1-3.26c-.43-1.45-.92-3-1.09-3.44s-.46-1.15-.63-1.59-1.23-3.09-2.34-5.91-3.43-7.87-5.15-11.25a47.27,47.27,0,0,1-3.13-7,1.41,1.41,0,0,0-.35-1c-.45-.27-.47-4.88,0-6.32.18-.6.52-1.8.74-2.67a15,15,0,0,1,.73-2.2,3,3,0,0,0,.32-1.16,3,3,0,0,1,.32-1.15,14.72,14.72,0,0,0,.74-2.2c.24-.87.55-1.9.7-2.29s.47-1.42.71-2.29.56-2,.72-2.47.64-2.08,1.06-3.53,1-3.4,1.29-4.33a6.08,6.08,0,0,0,.37-2.11c-.09-.25-.26,0-.4.44M19.52,105.54a3,3,0,0,0,.32,1.41c.45.69.45-.55,0-1.59-.28-.65-.3-.63-.32.18m.7,2.49a9.2,9.2,0,0,0,.47,2.12c.28.86,1,3.23,1.62,5.27s1.26,4,1.44,4.31a3.19,3.19,0,0,1,.33,1.26,1.72,1.72,0,0,0,.28,1,8.44,8.44,0,0,1,.73,1.75,24.72,24.72,0,0,0,1.5,3.79,3,3,0,0,1,.31,1.15,3.15,3.15,0,0,0,.31,1.15c1.74,3.41,1.68,4.72-.4,9-.89,1.81-1.95,4.05-2.35,5L23,146.93c-1.26,2.81-2.17,5.27-2,5.44a7.39,7.39,0,0,0,1.27-2.6c0-.13.67-1.66,2.38-5.42.48-1.07,1.61-3.45,2.51-5.29,2.33-4.78,2.26-5.77-1-13.59-.16-.39-.5-1.34-.74-2.12a8.28,8.28,0,0,0-.73-1.74,2.1,2.1,0,0,1-.28-1.13,1.38,1.38,0,0,0-.35-1,1.16,1.16,0,0,1-.36-.9,3.49,3.49,0,0,0-.31-1.31,67.65,67.65,0,0,1-2.14-6.78c-.62-2.21-1-3.15-1.05-2.45m.17,45.18c-.09.27-.51,1.41-.92,2.54-1.08,2.95-.63,2.84.53-.13a8.11,8.11,0,0,0,.77-2.7c-.11-.11-.28,0-.38.29m213,1.54a33.37,33.37,0,0,0-6.63,2.12c-3.51,1.52-4.93,2.17-7.94,3.64-1.84.9-4.67,2.39-6.29,3.32s-3,1.69-3.1,1.69-12.2,7.88-14.94,9.83c-7.6,5.43-12.34,13.59-8.92,15.35,4,2.06,13.09,1.2,27.61-2.6a14.38,14.38,0,0,0,2.2-.74,3.45,3.45,0,0,1,1.3-.32,1.2,1.2,0,0,0,.91-.35,1.2,1.2,0,0,1,.91-.35,3.29,3.29,0,0,0,1.3-.33,9.62,9.62,0,0,1,1.28-.54c.37-.11.59-.28.5-.38a10.87,10.87,0,0,0-2.78.73,109.85,109.85,0,0,1-15.5,4.06c-.87.17-2.54.51-3.71.76-3.33.71-12.07.6-13.49-.17q-2.93-1.59,1.68-8.37c1.71-2.53,2.82-3.44,12.12-10,6.29-4.45,18.89-11.51,24.57-13.75.87-.35,2.14-.87,2.82-1.17,6.18-2.68,10.65-2.95,12-.72.71,1.16,1,.76.33-.47-.87-1.63-2.55-2-6.24-1.22m-169,1a6.81,6.81,0,0,0-1.49,3.93c0,.83.4-.06.82-2,.94-4.26,7.69-3,22.08,4.21A121.07,121.07,0,0,1,100,169.82a17.5,17.5,0,0,0,2.19,1.34c.31,0,9.13,6.07,10.73,7.39,4.48,3.69,7.69,10.4,5.62,11.75-1,.68-6.32,1.48-7.77,1.17-.63-.13-2.41-.39-4-.57a99.09,99.09,0,0,1-28.21-7.42,17.6,17.6,0,0,0-3.3-1.21c-.21.21,5.31,2.65,8.4,3.71.67.24,1.55.55,1.94.71s1.42.47,2.29.71,1.91.56,2.29.71a12.38,12.38,0,0,0,1.77.51c.58.12,1.69.38,2.47.57,11.35,2.87,22.21,3.46,24.49,1.33,1.73-1.61,0-6.2-3.8-10.27-4.78-5.06-25.73-17.86-36.22-22.13l-2.07-.89c-5.15-2.27-11.11-3-12.46-1.5m175.64,2.56c0,1.2.62,2.33.64,1.23a3,3,0,0,0-.32-1.41c-.28-.44-.34-.41-.32.18m-221.72.39a1.65,1.65,0,0,0-.24,1c0,.68,0,.68.37.1s.3-1.52-.13-1.09m44,3.8c-.89,5.89.43,11.11,3.55,14.15,1.38,1.34,5.42,4.06,6,4.06s-.36-.67-1.83-1.42c-5.35-2.75-7.4-6.46-7.35-13.31,0-5.34,0-6-.4-3.48m178.49,3.74c.09,7.86-1.76,10.11-12.9,15.73-2.28,1.15-4,2.14-3.82,2.2,1.17.4,13-6.82,14.86-9.07,2.34-2.84,3.15-7.63,2.11-12.56-.21-1-.28.17-.25,3.7m-97.5,46.9c-6.67.32-8.21,1.21-9.79,5.68-.56,1.59-.59,11.3,0,13,1.88,5.92,7.91,11.65,15.44,14.69,3.68,1.48,4.25,2.35,4.32,6.64.06,3,.08,3.06.27,1.1.48-4.95-.47-6.67-4.55-8.24-12.06-4.63-17.47-14-15.18-26.2,1-5.17,2.59-6,12.81-6.4,17.43-.72,23.68,0,26.47,3,3.17,3.45,3.07,16.5-.16,21.09a5,5,0,0,0-.66,1.15,18.53,18.53,0,0,1-3.26,3.67,24.62,24.62,0,0,1-6.56,4.32c-3.53,1.82-3.59,1.93-3.58,7.15,0,4.93.11,5.31,1.6,5.85a3.09,3.09,0,0,1,1.79,1.67,7.06,7.06,0,0,0,1.83,2.18l1.24,1.18h7c6.74-.23,7-.25,7.81-1s1.13-.8,6.41-1h5.57l-.24,1.33c-.13.63-.37,1.62-.53,2.21s-.47,1.73-.68,2.55c-1.18,4.71-1.44,5.12-3.3,5.17-1.31,0-1.29,0-4.15,7-1.95,4.8-2.19,5-3.27,2.94-.62-1.2-.69-2-.63-7.65.08-7.26,0-7.76-2-7.69l-1.32,0,1.24.22,1.23.22.18,6.88c.18,7.08.5,8.68,2,9.91.58.47,1.56-.13,1.56-1a3,3,0,0,1,.31-1.1c.29-.57.59-1.28,1.42-3.35.17-.44.65-1.55,1.06-2.47a10.07,10.07,0,0,0,.74-2.13c0-.78.79-1.31,1.95-1.31a2.51,2.51,0,0,0,1.69-.64c.59-.65,3.44-10.86,3.12-11.18-.62-.63-12-.15-12.58.53s-1.09.7-7.49.7c-8,0-8.72-.22-10-3.25a2.84,2.84,0,0,0-1.58-1.39c-1.43-.51-1.48-.74-1.4-6,.07-4.89-.07-4.67,4.16-6.77,8.88-4.43,12.07-9.84,12.07-20.51,0-7.92-1-10.27-5.29-12.19-1.64-.74-17.65-1.17-27-.72m9.5,44.24c-.11.89-.35,1.27-.86,1.36-.76.14-2.29,1.4-2.29,1.89a7.19,7.19,0,0,1-.93,1.7l-.93,1.41-7.28,0c-6.6,0-9.49-.3-10.8-1.08s-4.79-1.07-7.15-.7a34.21,34.21,0,0,1-3.94.39c-1.79,0-2,1-.42,2.31a8.7,8.7,0,0,1,2.51,4.94c0,3.07,1,4.47,3.15,4.54A1.11,1.11,0,0,1,125,275c4.31,14.28,7.11,14.88,7,1.5,0-3.64,0-6.9,0-7.23s.33-.64,1-.67c.92-.05.93-.06.1-.21-1.55-.29-1.69.41-1.52,7.58.16,6.63-.12,8.7-1.29,9.42-.78.48-3-4-4.26-8.63-.75-2.72-1.07-3.17-2.27-3.18-1.69,0-2-.41-2.49-3.25-.56-3.24-1.36-5-2.7-5.95-1.86-1.32-1.37-1.61,3.2-1.88,4.1-.24,6.16-.1,7.61.49,2,.8,4.14,1,10.82,1.13,8.08.12,8.13.11,9.37-2.35.77-1.53,1.89-2.65,2.64-2.65s1.09-.65.9-2c-.13-.95-.14-.94-.29.23m-18,11.9a9.65,9.65,0,0,0,2.29.27c1.34,0,1.36,0,.35-.27-1.53-.4-3.86-.4-2.64,0m37.22,0c-1,.24-.89.27.53.27a10.58,10.58,0,0,0,2.47-.27c1.21-.39-1.48-.39-3,0m-32.46,1.2a24.38,24.38,0,0,0,4.06.26h3l-2.3-.26c-3.21-.36-6.2-.36-4.76,0m25.41-1-2.12.24,2.65,0a24.27,24.27,0,0,0,4.05-.26c1.84-.38-1.21-.39-4.58,0m-14.42,1.18c2.16.14,5.81.14,8.11,0,3.5-.21,2.85-.25-3.93-.25-6.52,0-7.34.05-4.18.24m-10.42,2.93c-1.22,1.22-.47,3,1.74,4.11,2.64,1.34,2.61,1.35,4.27-.15,2.13-1.94,3.2-1.55,5.24,1.92,1.87,3.16,3.34,3.1,6.57-.27l2.22-2.32,1.63.81c3.27,1.63,7.9-1.68,5.33-3.81-.69-.57-26.44-.85-27-.29m26.71,1.61c.24,2.44-2.64,3.4-5.38,1.79l-1.24-.74-2.38,2.5c-3.45,3.64-4.23,3.53-7.06-.91-1.53-2.4-4-2.74-4.81-.66s-5.61.42-5.81-2l-.11-1.43,13.34,1H166.8l.11.48"/></g></g></g></svg>