<svg xmlns="http://www.w3.org/2000/svg" viewBox="0 0 356.59 355.05"><defs><style>.cls-1{fill:none;stroke:#f6f6f6;stroke-linecap:round;stroke-linejoin:round;stroke-width:27.36px;}</style></defs><g id="Capa_2" data-name="Capa 2"><g id="svg"><path class="cls-1" d="M269.37,214.46,140.76,85.85c13.68-17.78,12.31-42.41-4.11-58.83a45.42,45.42,0,0,0-64.3,0A44.46,44.46,0,0,0,58.67,59.86,44.46,44.46,0,0,0,25.83,73.54C9.41,90,9.41,118.69,27.2,136.48c16.42,16.42,41,17.78,58.83,4.1L214.64,269.19C201,287,202.33,311.61,218.74,328a45.42,45.42,0,0,0,64.31,0,44.44,44.44,0,0,0,13.68-32.83c12.32,0,23.26-4.11,32.84-13.68a45.44,45.44,0,0,0,0-64.31C311.78,202.15,287.15,200.78,269.37,214.46Z"/></g></g></svg>