<svg xmlns="http://www.w3.org/2000/svg" viewBox="0 0 386.18 357.49"><defs><style>.cls-1{fill:#f9f9f9;}</style></defs><g id="Capa_2" data-name="Capa 2"><g id="svg"><g id="QTuxlG.tif"><path class="cls-1" d="M254.11,0c.3.8,1.09.54,1.63.66,6.3,1.34,11.27,5,16,9.05a13.63,13.63,0,0,1,3.34,4.55c3.88,8,10.48,11.65,19.18,11.82,6.09.12,12.15-.64,18.24-.54,12.71.21,23.55,4.42,32.11,14.05,3.35,3.77,7.86,5.67,12.52,7.21,6.94,2.31,13.93,4.46,20.26,8.23.81.48,1.64.93,2.43,1.44,6.16,4,7.69,7.59,5.18,14.38a171.41,171.41,0,0,1-12.64,26.79c-4.3,7.36-11,10.1-19.12,10.55-8.38.46-16.76-.06-25.14,0a37.85,37.85,0,0,0-9.38,1.1c-8.25,2.16-13.08,7.61-14.82,15.89a24.11,24.11,0,0,1-1.93,6.27c-2.38,4.62-7.27,6.1-11.72,3.53-8.1-4.67-16.16-9.42-24.28-14.06-13.29-7.61-26.62-15.15-39.93-22.74a31.77,31.77,0,0,1-3.54-2.33c-3.63-2.78-4.47-6-1.62-9.57,5.74-7.14,9.67-15.46,15.61-22.5A70.18,70.18,0,0,0,253,25.37a58.52,58.52,0,0,0-.21-16.08c-.54-3.23.39-6.21.82-9.29Z"/><path class="cls-1" d="M176.79,233c-19,0-35.67,0-52.36-.41a42.72,42.72,0,0,0-8.75.55c-5.31.95-9,4.25-11.9,8.6a105.72,105.72,0,0,1-30.58,30c-1.43.93-3,1.66-4.47,2.54-6.91,4.12-10,10.32-9.6,18.24.55,10.75.39,21.5.28,32.26-.06,5.59.09,11.22-1.21,16.74-2.86,12.05-12.25,16.33-22.85,15.6-9-.62-15.93-4.58-18.88-13.72a31.5,31.5,0,0,1-1.56-9.54c-.05-18.26.14-36.54-.19-54.8-.14-7.88.56-15.36,4.42-22.37a38.27,38.27,0,0,1,6.3-7.81c7.66-8,9.84-17.63,7.67-28.23-2.36-11.46-4.44-22.91-4-34.68a102.77,102.77,0,0,1,3.29-21.69c2-7.62.92-10.74-5.58-15.15-11.91-8.09-19.76-19.22-25-32.37-1.82-4.56-2.79-9.24-.51-14,3.38-7,12-9.85,20.19-6.83a10.53,10.53,0,0,1,7.29,8.37c1.58,7.29,6,13.08,10.92,18.51a63.81,63.81,0,0,0,4.84,4.89c4.82,4.37,10.53,5.37,16.12,2.09,9.59-5.62,20-7.35,30.85-7.37q37.62-.07,75.23.16a27.79,27.79,0,0,0,14.48-3.42c8.84-5,17.8-4.13,26.67.21s17,10.13,25.56,15.14c9.09,5.34,18,10.92,27.25,16,8.66,4.79,17.08,10,25.66,14.91,2,1.13,4.08,2,6.14,3a6.57,6.57,0,0,1,4.06,7c-.42,6.33.59,12.63.71,18.95.09,4.89.23,9.77-.85,14.62-1.18,5.28-3.19,10.29-7.18,13.84-5.65,5-6.78,11.33-7.17,18.3-.88,15.77,1.38,31.17,4.9,46.44,3.22,14,6.52,27.88,9.15,42,1,5.12,1.05,10.21-.89,15.15-3.2,8.15-10.92,12.87-20.73,12.73-10.89-.15-19.48-6.38-21.86-17.4-4.07-18.91-8.65-37.7-12.49-56.65a138.4,138.4,0,0,1-2.36-37,25.68,25.68,0,0,0-.17-7.32c-.81-3.69-2.53-5.37-6.23-6.11-3.46-.69-6.94-.45-10.41-.33C205.51,233.15,190,233,176.79,233Z"/><path class="cls-1" d="M94.5,297.36a12.81,12.81,0,0,1,4.89-10.81c6.27-5.22,11.86-11.16,17.83-16.69,2.54-2.34,5.14-4.63,7.7-7a8.73,8.73,0,0,1,1.57-1c3.47-1.92,6.06-.87,7,2.92,1.48,6.19,2.93,12.39,4.3,18.61,3.46,15.74,7.58,31.38,10.11,47.27,2.43,15.26-8.05,30-27,26-9-1.89-14.35-7.52-16.76-16.32-3.58-13.13-6.46-26.41-9.28-39.7A32.92,32.92,0,0,1,94.5,297.36Z"/></g></g></g></svg>