<svg xmlns="http://www.w3.org/2000/svg" viewBox="0 0 394.34 274.13"><defs><style>.cls-1{fill:none;stroke:#f6f6f6;stroke-linecap:round;stroke-linejoin:round;stroke-width:17.37px;}</style></defs><g id="Capa_2" data-name="Capa 2"><g id="svg"><g id="Layer_2" data-name="Layer 2"><g id="Layer_2-2" data-name="Layer 2-2"><polygon class="cls-1" points="119.43 265.44 53.51 265.44 53.51 48.9 85.38 8.69 119.43 48.9 119.43 265.44"/><polygon class="cls-1" points="230.09 265.44 164.25 265.44 164.25 48.9 196.13 8.69 230.09 48.9 230.09 265.44"/><polygon class="cls-1" points="340.84 265.44 274.91 265.44 274.91 48.9 306.79 8.69 340.84 48.9 340.84 265.44"/><rect class="cls-1" x="119.43" y="183.62" width="44.82" height="36.57"/><rect class="cls-1" x="230.09" y="183.62" width="44.82" height="36.57"/><rect class="cls-1" x="119.43" y="88.77" width="44.82" height="36.57"/><rect class="cls-1" x="8.69" y="183.62" width="44.82" height="36.57"/><rect class="cls-1" x="8.69" y="88.77" width="44.82" height="36.57"/><rect class="cls-1" x="230.09" y="88.77" width="44.82" height="36.57"/><rect class="cls-1" x="340.84" y="183.62" width="44.82" height="36.57"/><rect class="cls-1" x="340.84" y="88.77" width="44.82" height="36.57"/></g></g></g></g></svg>