<svg xmlns="http://www.w3.org/2000/svg" viewBox="0 0 390.21 243.88"><defs><style>.cls-1{fill:#f6f6f6;}</style></defs><g id="Capa_2" data-name="Capa 2"><g id="svg"><path id="i-449" class="cls-1" d="M56.91,113.81H333.3c30.33,0,56.91-26.74,56.91-57.23C390.21,25.93,364.12,0,333.3,0H56.91C26,0,0,25.93,0,56.58,0,87.07,26.58,113.81,56.91,113.81Zm0-97.55H333.3c19.18,0,40.65,16.58,40.65,40.32,0,21.46-19.35,41-40.65,41H56.91c-21.3,0-40.65-19.51-40.65-41C16.26,32.84,37.64,16.26,56.91,16.26ZM48.78,65H32.52A24.4,24.4,0,0,1,56.91,40.65H333.3A24.45,24.45,0,0,1,357.69,65H341.43a8.14,8.14,0,0,0-8.13-8.13H56.91A8.14,8.14,0,0,0,48.78,65Zm284.52,65H56.91C26,130.07,0,156,0,186.65c0,30.49,26.58,57.23,56.91,57.23H333.3c30.33,0,56.91-26.74,56.91-57.23C390.21,156,364.12,130.07,333.3,130.07Zm0,97.55H56.91c-21.3,0-40.65-19.51-40.65-41,0-23.74,21.38-40.32,40.65-40.32H333.3c19.18,0,40.65,16.58,40.65,40.32C374,208.11,354.6,227.62,333.3,227.62Zm24.39-32.51H341.43A8.14,8.14,0,0,0,333.3,187H56.91a8.14,8.14,0,0,0-8.13,8.13H32.52a24.4,24.4,0,0,1,24.39-24.39H333.3A24.45,24.45,0,0,1,357.69,195.11Z"/></g></g></svg>