<svg xmlns="http://www.w3.org/2000/svg" viewBox="0 0 354.05 354.05"><defs><style>.cls-1{fill:#f6f6f6;}</style></defs><g id="Capa_2" data-name="Capa 2"><g id="svg"><path class="cls-1" d="M177,14.47c89.48,0,162.55,72.84,162.55,162.56S266.75,339.58,177,339.58C87.55,339.58,14.47,266.75,14.47,177S87.55,14.47,177,14.47M177,0C79.35,0,0,79.35,0,177A177,177,0,1,0,177,0Z"/><path class="cls-1" d="M137.23,199.94c-2.89-.48-18.33,11.82-18.33,11.82s-25.56,31.59-48.23,14.71c-31.84-23.88,1-48.72,1-48.72C50.89,167.38,55,131.93,79.11,124.69c24.12-7,32.56,6.51,40.76,18.33,8,11.82,16.64,10.85,16.64,10.85H218s8.44,1,16.64-10.85,16.64-25.56,40.76-18.33c24.12,7,28.46,42.45,7.48,53.06,0,0,32.56,24.84,1,48.72-22.67,17.12-48.24-14.71-48.24-14.71s-15.43-12.3-18.33-11.82Z"/></g></g></svg>