<svg xmlns="http://www.w3.org/2000/svg" viewBox="0 0 355.02 355.02"><defs><style>.cls-1{fill:none;stroke:#f6f6f6;stroke-linecap:round;stroke-linejoin:round;stroke-width:25.36px;}</style></defs><g id="Capa_2" data-name="Capa 2"><g id="svg"><path class="cls-1" d="M177.51,253.58a98.23,98.23,0,0,1-50.72-13.94l12.68,39.3v63.4h76.08v-63.4l12.67-39.3A98.17,98.17,0,0,1,177.51,253.58Z"/><path class="cls-1" d="M261.19,261.19c7.61,3.8,15.22,5.07,24.09,5.07a56.82,56.82,0,0,0,57.06-57c0-24.09-15.22-44.38-35.5-53.26a49,49,0,0,0,22.82-41.84A50.86,50.86,0,0,0,278.94,63.4c-6.34,0-13.95,1.26-19,3.8C246,35.5,214.28,12.68,177.51,12.68S109,35.5,95.09,67.2c-5.07-2.54-12.68-3.8-19-3.8a50.86,50.86,0,0,0-50.71,50.71A49,49,0,0,0,48.18,156c-20.29,8.88-35.5,29.17-35.5,53.26a56.82,56.82,0,0,0,57.06,57c8.87,0,16.48-2.53,24.09-5.07A100.21,100.21,0,0,0,139.47,298"/><path class="cls-1" d="M110.31,228.22c17.75,15.22,41.84,25.36,67.2,25.36s49.45-10.14,67.2-25.36"/></g></g></svg>