<svg xmlns="http://www.w3.org/2000/svg" viewBox="0 0 399.88 362.44"><defs><style>.cls-1{fill:#f9f9f9;fill-rule:evenodd;}</style></defs><g id="Capa_2" data-name="Capa 2"><g id="svg"><g id="svgg"><path id="path0" class="cls-1" d="M270.91.31c-.9.18-2.29.42-3.09.55C260.1,2.11,246.76,8,242.39,12.09a11.09,11.09,0,0,1-1.24.92c-3.77,2.48-14.49,14.37-14.49,16.08a16.39,16.39,0,0,1-1.23,2.06c-1.07,1.61-2.1,3.79-4.4,9.24-.89,2.1-5.23,15.81-6.52,20.58-.71,2.64-1.54,5.62-1.83,6.62s-.76,2.88-1,4.17c-1.12,5.12-4.95,22.16-5.84,25.93-.51,2.19-1,4.23-1,4.53-.17,1-2.43,10.67-3,12.79a6.8,6.8,0,0,0-.35,2.42c.44.71,13.26,5,16.7,5.63.6.1,1.5.27,2,.37a39.92,39.92,0,0,0,9.84.92c6.73,0,16.88-2.74,17.66-4.77a.52.52,0,0,1,.46-.31,1.59,1.59,0,0,0,.79-.35,47.21,47.21,0,0,0,8.58-8.17c2.45-2.78,7.89-12.21,9.83-17,.64-1.59,1.37-3.39,1.62-4s1.22-3.45,2.15-6.34c3.54-11.1,5-14.05,8.08-16.13,2.43-1.65,7.56-1,9.78,1.2,5.86,5.86,1.43,29.43-8.27,44a13.56,13.56,0,0,0-1.41,2.43.52.52,0,0,1-.28.43,30,30,0,0,0-2.37,2.75,71.28,71.28,0,0,1-11.8,11.44c-1.93,1.44-3.59,2.69-3.69,2.79a49.75,49.75,0,0,1-6.52,3.59A61.77,61.77,0,0,1,199.65,137c-23.47-10.75-48.47-5-72.35,16.52l-3.08,2.74a149.38,149.38,0,0,0-12.86,13.27L107.57,174c-1.94,2.16-6.12,8.43-10.39,15.59-1.08,1.82-5.46,10.75-6.32,12.88-.55,1.39-1.22,3-1.47,3.62A142.87,142.87,0,0,0,84,224.62c-.1.6-.43,2.55-.73,4.35-.58,3.38-.84,5.44-1.35,10.7-.39,4-.14,23,.35,26.4.21,1.46.47,3.42.58,4.36s.29,2.1.38,2.6.26,1.4.36,2c1.61,9.57,6.41,27.51,9,33.72.25.6.91,2.31,1.47,3.81a20.19,20.19,0,0,0,1.31,3.06,1.41,1.41,0,0,1,.32.84,10.84,10.84,0,0,0,.85,2.38c.47,1,1.31,2.94,1.87,4.24s1.64,3.61,2.41,5.16c1.91,3.83,2,3.65-2.5,3.39-7.32-.41-10.79-.64-11.7-.76L84,330.51A89.49,89.49,0,0,1,71.4,328.3c-11.94-3-21.57-8.82-27-16.39C38,302.89,34,293.33,29.88,277c-3-11.8-4.79-15-9.52-17.14-3.71-1.64-10.84-1-13.61,1.22l-1.59,1.28C-3.24,269.11-1,301.69,9,316.64c.56.85,1.25,2,1.53,2.53a8.75,8.75,0,0,0,1.18,1.71,2.76,2.76,0,0,1,.67.95c0,1.72,11.91,14,16.68,17.2a11.42,11.42,0,0,1,1.22.93c.6.56,5.68,4,6.83,4.55.53.28,2.2,1.2,3.69,2.05A105.28,105.28,0,0,0,66,355.86c3.49.72,10.67,2,12.29,2.21,1.08.14,2.25.3,2.6.37.58.11,2.07.32,5.24.73,2.41.31,8.78,1,12.87,1.42,6.19.61,15.27,1.24,24.12,1.65,7,.33,71.6.23,75.61-.12,3.27-.28,47.28-.3,55.88,0,6.68.22,7.95.18,8-.25a10.1,10.1,0,0,1,.19-1.23c3.3-15.3-2.66-26-16-28.62-10.76-2.15-16-6.05-18.44-13.68-1.26-3.94-1.6-7.51-1.8-18.62-.09-5.39-.25-10.2-.34-10.7s-.27-1.64-.39-2.54-.29-2-.39-2.54-.27-1.4-.37-2a85.88,85.88,0,0,0-2.88-9.8c-1.94-4.67-3.25-7.48-3.68-7.83a1.35,1.35,0,0,1-.5-.84c0-.66-4.73-7.48-7.4-10.69-3.31-4-11-10.92-12.1-10.92a.57.57,0,0,1-.51-.32c-.18-.51-6.71-4.38-9.55-5.67-7.12-3.25-18.71-6.14-23.21-5.8-18.18,1.39-22.14-.16-22-8.63.18-9.28,4.92-11.66,19.35-9.7,2.84.39,7.2.77,9.7.85,4.2.14,4.91.28,9.79,1.86,5.75,1.86,15.2,5.25,15.77,5.66.2.14,2.24,1.21,4.54,2.38,8.77,4.45,14.83,9.44,22.85,18.85,7.61,8.94,15.17,28,18.27,46,1.14,6.65,2.76,19.71,2.76,22.3,0,.44.67.86,2.26,1.43,16.89,6,29.36,19.18,32.77,34.65a112.33,112.33,0,0,1,1.78,12.33,28,28,0,0,0,.39,3.78c.19.19,64.11.26,70.32.07,13.74-.41,20.37-2.49,26.14-8.2,6.15-6.09,7.88-13.72,5.76-25.39-1.05-5.77-5.91-15.7-9.72-19.85-.43-.47-1.38-1.6-2.12-2.5-2.06-2.54-6.85-6.4-12.62-10.17a170.85,170.85,0,0,1-14.28-10.27l-1.54-1.28c-9-7.37-23.84-22.49-36.05-36.8l-3.71-4.35a60.79,60.79,0,0,1-7.9-12.91c-.61-1.48-1.26-3-1.43-3.41a81.66,81.66,0,0,1-2.75-9.79,66.8,66.8,0,0,1-1.14-11.78c-.36-11.06,2-24.41,5.92-33,2.21-4.88,6.8-13,8.29-14.74.2-.24.7-.86,1.09-1.39A83.12,83.12,0,0,1,318,145.83a28.42,28.42,0,0,0,2.88-2.35.52.52,0,0,1,.42-.28,20.93,20.93,0,0,0,2.95-1.63,58.92,58.92,0,0,1,17-6.22c.5-.08,1.48-.32,2.18-.52s2.76-.76,4.58-1.24a62.83,62.83,0,0,0,10.73-3.85,3.12,3.12,0,0,1,1-.32c1.09,0,16.87-7.87,17.41-8.68a1.34,1.34,0,0,1,.59-.42,35.31,35.31,0,0,0,5-3.81c3-2.46,8.57-8.93,8.57-9.9a.39.39,0,0,1,.37-.4c.2,0,.36-.24.36-.54s.13-.54.29-.54.54-.54.85-1.18,1.07-2.18,1.68-3.39A51,51,0,0,0,397,61.65C390.14,42,375.37,30.57,354.5,28.8a64.9,64.9,0,0,1-18.86-4.54l-2.9-1.3a94.86,94.86,0,0,1-11.84-7.79,64.1,64.1,0,0,0-8.11-6c-1-.59-2.14-1.28-2.54-1.53-4-2.46-10.4-4.89-17-6.46-4.32-1-18.65-1.58-22.3-.88"/></g></g></g></svg>