<svg xmlns="http://www.w3.org/2000/svg" viewBox="0 0 391.19 95.1"><defs><style>.cls-1{fill:#f9f9f9;}</style></defs><g id="Capa_2" data-name="Capa 2"><g id="svg"><path class="cls-1" d="M74.55,1.5,86.7,47.7,97.35,1.5H126.9L102.3,93.6H75.9L63.45,46.5,50.85,93.6H24.45L0,1.5H30L40.8,47.7,53,1.5Z"/><path class="cls-1" d="M171.6,95.1c-27.6,0-46.35-20.1-46.35-47.55S144,0,171.6,0s46.5,20,46.5,47.55S199.2,95.1,171.6,95.1Zm0-69.75c-10.2,0-17.1,8.4-17.1,22.2s6.9,22.2,17.1,22.2,17.25-8.4,17.25-22.2S181.8,25.35,171.6,25.35Z"/><path class="cls-1" d="M269.39,95.1c-27.59,0-46.34-20.1-46.34-47.55S241.8,0,269.39,0s46.5,20,46.5,47.55S297,95.1,269.39,95.1Zm0-69.75c-10.2,0-17.1,8.4-17.1,22.2s6.9,22.2,17.1,22.2,17.25-8.4,17.25-22.2S279.59,25.35,269.39,25.35Z"/><path class="cls-1" d="M322.94,93.6V1.5h68.25V26.55h-39.6v12.9h36v24.3h-36V93.6Z"/></g></g></svg>