<?xml version="1.0" standalone="no"?>
<!DOCTYPE svg PUBLIC "-//W3C//DTD SVG 20010904//EN"
 "http://www.w3.org/TR/2001/REC-SVG-20010904/DTD/svg10.dtd">
<svg version="1.0" xmlns="http://www.w3.org/2000/svg"
 width="1200.000000pt" height="1200.000000pt" viewBox="0 0 1200.000000 1200.000000"
 preserveAspectRatio="xMidYMid meet">
<metadata>
Created by potrace 1.11, written by Peter Selinger 2001-2013
</metadata>
<g transform="translate(0.000000,1200.000000) scale(0.100000,-0.100000)"
fill="#000000" stroke="none">
<path d="M5943 11943 c-15 -8 -41 -22 -58 -31 -16 -9 -32 -16 -35 -17 -3 0
-16 -8 -30 -17 -47 -29 -225 -125 -247 -132 -13 -4 -23 -11 -23 -15 0 -4 -16
-13 -35 -20 -19 -7 -35 -17 -35 -22 0 -5 -3 -8 -7 -7 -14 3 -63 -25 -63 -35 0
-6 -3 -7 -7 -4 -3 4 -20 -2 -37 -12 -31 -19 -80 -46 -211 -117 -38 -20 -101
-55 -140 -76 -38 -22 -84 -46 -102 -53 -17 -8 -34 -19 -38 -25 -3 -5 -15 -10
-26 -10 -10 0 -19 -4 -19 -9 0 -5 -12 -14 -27 -20 -16 -6 -50 -24 -78 -40 -27
-15 -95 -52 -150 -81 -55 -29 -104 -56 -110 -61 -5 -4 -39 -23 -75 -42 -69
-36 -140 -75 -255 -138 -38 -21 -95 -51 -125 -66 -30 -16 -57 -31 -60 -34 -3
-4 -23 -15 -45 -26 -84 -42 -150 -78 -163 -90 -13 -12 -28 -17 -44 -14 -5 0
-8 -3 -8 -9 0 -5 -6 -10 -14 -10 -8 0 -16 -3 -18 -7 -1 -5 -25 -20 -53 -34
-125 -65 -230 -124 -233 -131 -2 -4 -8 -6 -13 -2 -5 3 -9 1 -9 -4 0 -6 -12
-13 -27 -17 -15 -3 -30 -10 -33 -13 -3 -4 -21 -15 -40 -26 -35 -18 -100 -54
-195 -106 -27 -15 -75 -40 -105 -56 -30 -16 -57 -31 -60 -34 -3 -3 -32 -18
-65 -35 -33 -16 -62 -32 -65 -35 -3 -3 -39 -22 -80 -44 -41 -21 -83 -45 -92
-54 -10 -8 -18 -12 -18 -9 0 3 -42 -18 -94 -48 -52 -29 -97 -51 -100 -47 -3 3
-6 0 -6 -7 0 -7 -4 -10 -9 -7 -5 4 -11 2 -13 -3 -1 -5 -37 -27 -78 -49 -122
-65 -174 -93 -186 -103 -6 -5 -14 -6 -17 -2 -4 3 -7 1 -7 -5 0 -7 -4 -12 -9
-12 -4 0 -76 -38 -159 -84 -83 -46 -154 -81 -157 -78 -3 3 -5 0 -5 -6 0 -7 -5
-12 -10 -12 -6 0 -66 -31 -135 -70 -69 -38 -129 -70 -134 -70 -5 0 -16 -6 -23
-13 -7 -7 -35 -24 -63 -39 -171 -90 -173 -91 -177 -117 -1 -14 -3 -1528 -2
-3365 l0 -3338 25 -19 c13 -10 29 -19 36 -19 6 0 13 -4 15 -8 1 -4 28 -20 58
-35 56 -28 126 -66 235 -127 61 -34 122 -68 237 -129 34 -19 98 -54 142 -77
43 -24 82 -44 87 -44 5 0 9 -3 9 -8 0 -4 24 -18 53 -31 28 -13 54 -27 57 -30
3 -3 37 -22 75 -41 39 -19 72 -37 75 -40 3 -3 39 -23 80 -44 41 -21 82 -44 90
-50 30 -23 80 -47 80 -39 0 4 4 3 8 -3 4 -6 36 -26 72 -45 36 -19 68 -38 72
-44 5 -7 8 -7 8 0 0 7 3 7 8 0 4 -5 23 -18 42 -29 19 -10 67 -35 105 -56 39
-21 90 -48 115 -61 25 -13 47 -26 50 -29 3 -3 32 -19 65 -36 70 -36 108 -57
115 -64 3 -3 34 -20 70 -37 36 -18 101 -53 145 -78 44 -25 105 -57 135 -72 30
-16 57 -31 58 -35 2 -5 7 -8 12 -8 4 0 39 -17 77 -39 37 -21 109 -60 158 -86
50 -27 93 -53 97 -59 4 -6 8 -8 8 -4 0 4 17 -2 38 -14 48 -27 101 -56 185
-102 37 -20 84 -46 105 -58 20 -11 66 -36 102 -55 36 -19 81 -44 100 -55 19
-11 64 -36 100 -55 36 -18 72 -38 80 -43 48 -30 176 -94 183 -92 4 1 7 -3 7
-8 0 -6 10 -14 23 -19 13 -5 79 -40 148 -78 68 -37 138 -75 154 -83 17 -8 32
-17 35 -20 3 -3 30 -18 60 -33 30 -15 69 -36 85 -46 17 -10 64 -35 105 -56 41
-22 77 -42 80 -45 3 -3 30 -18 60 -34 91 -47 164 -88 178 -99 6 -5 12 -6 12
-1 0 5 4 5 8 -1 7 -9 28 -22 128 -75 l41 -22 44 25 c42 24 130 71 229 123 25
13 52 28 60 34 8 5 56 31 105 58 154 84 248 135 290 159 22 12 51 28 65 35 24
12 225 122 265 144 11 7 47 26 80 43 33 18 74 39 90 49 17 9 62 34 100 55 104
56 224 121 275 151 25 14 70 38 100 53 30 15 57 31 58 36 2 4 12 7 23 7 10 0
19 4 19 9 0 5 12 14 28 20 15 6 36 16 47 23 51 32 71 42 84 44 8 2 17 6 20 11
3 4 29 20 56 34 28 15 76 40 107 58 31 17 76 41 100 54 24 13 59 33 80 45 20
11 39 18 42 15 3 -4 6 -2 6 4 0 6 33 27 73 47 103 52 241 127 247 135 3 3 30
18 60 33 30 15 91 48 135 73 44 24 87 48 95 52 8 3 53 27 100 53 149 82 244
133 272 148 15 7 30 18 33 23 4 5 10 7 15 4 5 -3 11 -1 15 5 3 6 21 17 38 25
18 8 59 30 92 49 33 20 76 43 95 52 19 9 41 21 49 27 7 6 20 12 29 13 8 2 18
6 21 11 3 4 20 15 36 24 96 50 141 75 147 84 4 5 8 7 8 2 0 -4 18 4 40 18 22
14 44 25 50 25 5 0 10 5 10 12 0 6 3 9 6 5 3 -3 40 14 81 39 41 24 81 44 89
44 8 0 14 4 14 9 0 5 12 14 28 20 32 12 85 43 93 54 3 5 9 8 13 7 5 -1 116 57
199 105 9 5 56 30 104 55 48 25 96 52 107 61 l21 17 0 3354 c0 3032 -2 3356
-16 3370 -8 9 -33 25 -55 35 -76 38 -159 86 -166 97 -4 6 -8 7 -8 3 0 -4 -20
4 -45 18 -25 14 -64 36 -87 49 -24 13 -65 36 -93 51 -71 39 -191 104 -247 133
-27 13 -50 28 -54 33 -3 5 -14 9 -25 9 -10 0 -19 4 -19 10 0 5 -11 12 -25 16
-13 3 -29 12 -36 20 -6 8 -15 11 -20 8 -5 -3 -9 0 -9 5 0 6 -4 11 -9 11 -5 0
-46 21 -92 46 -104 58 -172 95 -269 147 -41 22 -111 60 -155 85 -43 24 -94 51
-112 59 -18 7 -33 18 -33 24 0 5 -4 8 -9 5 -5 -3 -25 5 -45 19 -20 13 -36 22
-36 19 0 -3 -13 4 -29 15 -16 12 -34 21 -39 21 -6 0 -12 3 -14 8 -1 4 -25 18
-53 32 -27 13 -53 29 -57 35 -4 5 -8 7 -8 2 0 -4 -17 3 -37 16 -21 13 -83 48
-138 77 -55 30 -127 69 -160 87 -33 18 -76 41 -95 51 -19 9 -37 19 -40 22 -3
3 -23 14 -45 26 -70 36 -160 86 -172 97 -7 5 -13 6 -13 2 0 -3 -12 3 -26 14
-15 12 -33 21 -40 21 -7 0 -19 6 -26 13 -7 7 -42 28 -78 46 -36 19 -92 50
-125 68 -33 18 -85 45 -115 60 -30 16 -57 31 -60 34 -3 3 -34 21 -70 39 -36
19 -77 42 -92 53 -16 10 -28 15 -28 11 0 -4 -8 -1 -17 7 -20 16 -32 22 -121
69 -34 17 -65 36 -68 41 -3 5 -14 9 -24 9 -10 0 -20 4 -22 8 -1 4 -32 23 -68
41 -36 18 -73 40 -82 49 -10 8 -18 11 -18 6 0 -5 -4 -4 -8 1 -4 6 -29 21 -57
35 -27 14 -53 30 -57 35 -5 7 -8 7 -8 0 0 -7 -3 -7 -8 0 -4 6 -34 24 -67 40
-33 17 -62 32 -65 35 -3 3 -18 12 -35 21 -16 9 -55 30 -85 47 -30 16 -84 45
-120 64 -36 20 -94 52 -130 72 -36 20 -82 44 -102 54 -21 9 -38 20 -38 24 0 5
-9 8 -20 8 -11 0 -20 3 -20 8 0 4 -10 12 -23 17 -35 17 -151 79 -157 85 -3 3
-37 21 -77 41 -68 35 -73 36 -100 22z m4152 -2963 c-3 -5 -12 -10 -18 -10 -7
0 -6 4 3 10 19 12 23 12 15 0z m-1800 -980 c-3 -5 -12 -10 -18 -10 -7 0 -6 4
3 10 19 12 23 12 15 0z"/>
</g>
</svg>
