<?xml version="1.0" standalone="no"?>
<!DOCTYPE svg PUBLIC "-//W3C//DTD SVG 20010904//EN"
 "http://www.w3.org/TR/2001/REC-SVG-20010904/DTD/svg10.dtd">
<svg version="1.0" xmlns="http://www.w3.org/2000/svg"
 width="1144.000000pt" height="1144.000000pt" viewBox="0 0 1144.000000 1144.000000"
 preserveAspectRatio="xMidYMid meet">
<metadata>
Created by potrace 1.14, written by Peter Selinger 2001-2017
</metadata>
<g transform="translate(0.000000,1144.000000) scale(0.100000,-0.100000)"
fill="#000000" stroke="none">
<path d="M5722 8112 l3 -666 135 -68 c74 -37 146 -72 160 -78 14 -5 32 -14 40
-19 8 -6 60 -31 115 -57 99 -46 264 -125 610 -294 99 -48 246 -120 327 -159
80 -39 151 -71 157 -71 6 0 11 -4 11 -10 0 -5 5 -10 11 -10 6 0 93 -40 193
-89 99 -48 262 -128 361 -176 99 -48 206 -100 238 -116 l57 -28 -2 666 -3 667
-75 37 c-41 21 -147 72 -235 114 -88 42 -167 80 -175 86 -8 5 -22 12 -30 15
-8 4 -100 48 -205 99 -104 51 -260 126 -345 168 -85 41 -236 114 -335 162 -99
48 -261 127 -360 175 -99 48 -247 120 -330 160 -82 40 -189 92 -238 116 l-87
43 2 -667z"/>
<path d="M3290 6931 l0 -659 43 -25 c23 -13 59 -30 80 -38 20 -7 37 -17 37
-21 0 -4 6 -8 13 -8 8 0 76 -31 153 -69 133 -66 336 -165 659 -321 196 -94
476 -230 700 -340 353 -172 490 -238 513 -245 12 -3 22 -11 22 -16 0 -5 5 -9
12 -9 6 0 77 -32 157 -71 80 -40 225 -110 321 -156 96 -47 252 -123 346 -169
94 -46 177 -84 183 -84 6 0 11 -4 11 -10 0 -5 5 -10 12 -10 7 0 75 -31 153
-69 77 -38 212 -103 300 -145 88 -42 167 -81 175 -87 8 -5 22 -12 30 -15 15
-6 181 -86 440 -212 342 -166 480 -232 485 -232 3 0 5 296 5 659 l0 659 -22
14 c-13 7 -61 31 -108 53 -47 21 -86 42 -88 47 -2 4 -8 8 -13 8 -6 0 -62 25
-124 55 -63 30 -119 55 -125 55 -5 0 -10 4 -10 8 0 4 -22 16 -50 26 -27 10
-50 22 -50 27 0 5 -6 9 -13 9 -13 0 -35 10 -367 172 -113 55 -293 143 -400
195 -107 52 -276 134 -375 183 -99 48 -252 122 -340 165 -88 43 -248 120 -355
172 -107 52 -269 131 -360 175 -91 44 -271 132 -400 195 -350 169 -357 173
-369 173 -6 0 -11 5 -11 10 0 6 -5 10 -11 10 -6 0 -75 31 -153 69 -77 38 -213
103 -301 146 -88 43 -269 131 -402 196 -134 66 -247 119 -253 119 -5 0 -10 5
-10 10 0 6 -6 10 -13 10 -8 0 -36 11 -63 25 -27 14 -52 25 -56 25 -5 0 -8
-297 -8 -659z"/>
<path d="M3292 4569 l3 -660 45 -24 c88 -46 278 -135 289 -135 6 0 11 -4 11
-8 0 -4 23 -16 50 -27 28 -11 50 -23 50 -27 0 -4 6 -8 12 -8 7 0 62 -24 123
-54 60 -30 196 -96 300 -146 105 -51 276 -135 382 -186 106 -52 197 -94 203
-94 5 0 10 -4 10 -10 0 -5 5 -10 12 -10 7 0 75 -31 153 -69 77 -38 203 -99
280 -136 77 -36 220 -106 318 -154 l177 -88 -2 664 -3 664 -25 14 c-14 8 -128
65 -255 126 -126 61 -297 144 -380 184 -82 41 -161 78 -175 84 -14 6 -32 15
-40 20 -14 9 -142 71 -525 256 -165 80 -626 303 -929 451 -39 19 -73 34 -78
34 -4 0 -7 -297 -6 -661z"/>
</g>
</svg>
