<svg width="24" height="24" viewBox="0 0 24 24" fill="none" xmlns="http://www.w3.org/2000/svg">
<path d="M3 15V16.5H6.4395L1.5 21.4395L2.5605 22.5L7.5 17.5605V21H9V15H3Z" fill="white"/>
<path d="M18 15.75H19.5V19.5H18V15.75Z" fill="white"/>
<path d="M15 12H16.5V19.5H15V12Z" fill="white"/>
<path d="M12 13.5H13.5V19.5H12V13.5Z" fill="white"/>
<path d="M21 1.5H3C2.6023 1.5004 2.221 1.65856 1.93978 1.93978C1.65856 2.221 1.5004 2.6023 1.5 3V12H3V9.75H21.0007L21.0015 21H12V22.5H21C21.3976 22.4994 21.7788 22.3412 22.06 22.06C22.3412 21.7788 22.4994 21.3976 22.5 21V3C22.4996 2.6023 22.3414 2.221 22.0602 1.93978C21.779 1.65856 21.3977 1.5004 21 1.5ZM9 8.25H3V3H9V8.25ZM10.5 8.25V3H21V8.25H10.5Z" fill="white"/>
</svg>
