<svg xmlns="http://www.w3.org/2000/svg" viewBox="0 0 321.29 353.68"><defs><style>.cls-1{fill:#ededed;}.cls-2{fill:#181514;}.cls-3{fill:#f99f08;}.cls-4{fill:#eee;}.cls-5{fill:#e1a144;}.cls-6{fill:#fa8600;}.cls-7{fill:#060602;}.cls-8{fill:#050402;}.cls-9{fill:#eeeeed;}.cls-10{fill:#fca13b;}.cls-11{fill:#fca43c;}.cls-12{fill:#090909;}.cls-13{fill:#121212;}</style></defs><g id="Capa_2" data-name="Capa 2"><g id="svg"><g id="Capa_2-2" data-name="Capa 2"><g id="Capa_1-2" data-name="Capa 1-2"><g id="K3w96t.tif"><path class="cls-1" d="M31.56,0c.06.78.67.64,1.18.74A67.62,67.62,0,0,1,53.35,7.86,123.56,123.56,0,0,1,69.87,19c9.2,7.23,17.48,15.47,25.6,23.89,4.23,4.35,8.26,8.87,12.33,13.38a2.9,2.9,0,0,0,3.43.88,174.28,174.28,0,0,1,24.22-5.39c6.55-1,13.06-1.48,19.63-1.9a133,133,0,0,1,16.58.24c13.69.79,27.09,3.54,40.31,7.16a2,2,0,0,0,2.39-.94,191.69,191.69,0,0,1,23.79-26.1c9.61-8.88,20.16-16.64,32.1-22.24,7-3.26,14.41-5,21.9-6.66a18.11,18.11,0,0,1,11,.82c3.7,1.48,6,4.62,7.95,8,3.8,6.46,5.53,13.58,6.95,20.81.74,3.7.74,7.48,1.18,11.2.51,4.44,0,8.88-.2,13.22-.25,5.92-1.08,11.78-1.92,17.65-2.22,15.53-6.24,30.72-10.11,45.91-1.78,7-3.81,14-6.25,20.78a6.41,6.41,0,0,0,.33,5.46,157.55,157.55,0,0,1,11.09,26,191.17,191.17,0,0,1,7,29.27c.85,5.52,1.39,11,1.81,16.61.4,5.18.3,10.35.21,15.57a63.39,63.39,0,0,1-2.11,13.19,86.46,86.46,0,0,1-12.34,27.78,154.38,154.38,0,0,1-16,20.36A162.6,162.6,0,0,1,265,316.12a229.15,229.15,0,0,1-35.22,20.24,186.61,186.61,0,0,1-34,12.39,173.56,173.56,0,0,1-20.7,4,115.34,115.34,0,0,1-21.18.69c-8.35-.49-16.48-2.45-24.5-4.74a242.43,242.43,0,0,1-26.91-9.7c-6.22-2.59-12.27-5.53-18.24-8.62a219.33,219.33,0,0,1-21.64-13,201.15,201.15,0,0,1-21.78-16.78c-4-3.57-8-7.17-11.7-11C20,280,11.77,269.73,6.25,257.55,3.68,251.88,2.33,245.87,1,239.8c-.24-1.09.37-2.52-1-3.29v-18.4c.5-.06.68-.36.74-.84a126.33,126.33,0,0,1,2.05-14.62,248.8,248.8,0,0,1,7.5-30.81,211.76,211.76,0,0,1,10.56-27,2.81,2.81,0,0,0,.12-2.37c-1.1-3-2.21-6.08-3.17-9.17-2.47-8-4.81-16.11-6.73-24.3C9.61,102.8,8.19,96.57,7.18,90.23,6.23,84.31,5.55,78.4,4.89,72.48c-.54-5-1.12-10-1.27-14.92-.26-8.82-.26-17.62,1.3-26.42,1.28-7.21,2.75-14.32,6.65-20.67,3.09-4.92,7.1-8.45,13-9.55.66-.11,1.8.29,2.05-.92ZM311.91,45.45a88.46,88.46,0,0,0-1.28-14.62A53.79,53.79,0,0,0,304,12.64a8.21,8.21,0,0,0-9-4.25,81.9,81.9,0,0,0-16.58,4.25c-12.19,4.5-22.54,12-32.25,20.44a202.29,202.29,0,0,0-27,29c-2,2.55-4.25,3.7-7.51,2.73a181.8,181.8,0,0,0-39.45-7.21,165.92,165.92,0,0,0-61,7.12,6.74,6.74,0,0,1-7.67-2.12c-2-2.22-4.06-4.44-6.1-6.66C86.32,43.87,74.87,32.1,61.71,22.14,53.16,15.68,44,10.47,33.34,8.3c-7.78-1.58-12.57.54-16.27,7.53A31.92,31.92,0,0,0,15.59,19c-3.36,8.29-4.2,17-4.5,25.89-.57,16.67,1.48,33.13,4.37,49.5a281.28,281.28,0,0,0,12.64,46.1,8.7,8.7,0,0,1-.34,7.18c-2.14,4.32-4,8.78-5.79,13.31A221.74,221.74,0,0,0,8.21,215.74a84.4,84.4,0,0,0-.27,20.34,67,67,0,0,0,12.27,31.1c10,14.2,22.43,26,36.07,36.6,20.47,15.9,43.37,27.25,67.82,35.6,10.31,3.53,20.79,6.28,31.74,6.71a124.85,124.85,0,0,0,36.66-4c24.41-6.38,46.76-17.18,67.46-31.46,17.16-11.83,31.67-26.33,42.59-44.21,6.41-10.48,10.64-21.76,11.18-34.1a159.35,159.35,0,0,0-3.63-40.68,168.26,168.26,0,0,0-15.67-43.24,11.86,11.86,0,0,1-1-9.89c4.43-12.83,7.86-25.94,11-39.13C308.56,82.27,311.69,65.08,311.91,45.45Z"/><path class="cls-2" d="M311.91,45.45c-.22,19.6-3.35,36.82-7.44,53.91-3.17,13.18-6.61,26.29-11,39.12a11.94,11.94,0,0,0,1,9.89,169,169,0,0,1,15.67,43.24,159.8,159.8,0,0,1,3.63,40.68c-.55,12.34-4.78,23.62-11.18,34.1-10.93,17.87-25.44,32.4-42.6,44.24-20.71,14.27-43.06,25.07-67.45,31.45a124.92,124.92,0,0,1-36.67,4.05c-10.94-.43-21.44-3.18-31.74-6.71-24.45-8.36-47.33-19.7-67.81-35.6-13.64-10.6-26.1-22.4-36.08-36.6A67.1,67.1,0,0,1,8,236.11a84.84,84.84,0,0,1,.27-20.33A222.18,222.18,0,0,1,22,161.05c1.77-4.5,3.65-9,5.8-13.32a8.73,8.73,0,0,0,.32-7.21A283.64,283.64,0,0,1,15.42,94.36C12.57,78,10.49,61.56,11.09,44.89,11.4,36.08,12.24,27.32,15.6,19a29.84,29.84,0,0,1,1.48-3.2c3.75-7,8.51-9.11,16.27-7.53C44,10.44,53.17,15.66,61.72,22.11c13.16,10,24.6,21.73,35.74,33.83,2,2.21,4.1,4.43,6.1,6.65a6.73,6.73,0,0,0,7.66,2.12,165.89,165.89,0,0,1,61-7.11,181.71,181.71,0,0,1,39.44,7.21c3.27,1,5.53-.18,7.52-2.74a200.49,200.49,0,0,1,27-29c9.7-8.36,20.05-15.9,32.26-20.4A81.9,81.9,0,0,1,295,8.39,8.2,8.2,0,0,1,304,12.64a53.54,53.54,0,0,1,6.64,18.19A88.46,88.46,0,0,1,311.91,45.45Zm-3.83,183c0-3.56.38-7.13-.26-10.67a140.82,140.82,0,0,0-2.22-19.12,146.13,146.13,0,0,0-16-46.85A19.13,19.13,0,0,1,288.11,136c5.74-18.15,11.13-36.4,14.55-55.18,1.76-9.61,2.44-19.4,3.35-29.13.47-5.09-.17-10.12-.58-15.18A55.4,55.4,0,0,0,300.1,17.4c-1.15-2.48-2.71-3.29-5.41-3a63,63,0,0,0-18.87,5.61C264.23,25.44,254.37,33.31,245.14,42A231.34,231.34,0,0,0,220.4,70c-2,2.56-3,2.81-5.92,1.77a147.55,147.55,0,0,0-24.76-6.2A212.47,212.47,0,0,0,166,63.28a158.41,158.41,0,0,0-28.79,1.39,131.47,131.47,0,0,0-27.71,6.83A6.21,6.21,0,0,1,102,69.61c-3.28-3.7-6.65-7.4-10-11C81.41,47.18,70.45,36.17,58.06,26.7c-7.4-5.63-15.26-10.21-24.41-12.32-6.48-1.48-9.16-.33-12.12,5.63a27.37,27.37,0,0,0-1.66,4.09c-2.4,7.7-3,15.73-3.16,23.74-.25,14,1.58,27.77,3.8,41.52a240.14,240.14,0,0,0,13.87,50.93,9.71,9.71,0,0,1-.51,8.35A206.75,206.75,0,0,0,17.2,196.29,130.84,130.84,0,0,0,13.84,228a13.23,13.23,0,0,0-.52,7.32c2.17,13.51,8.28,25.19,17,35.59A182,182,0,0,0,59.6,298.87,221,221,0,0,0,136,336.78a97.68,97.68,0,0,0,47.11,1.39A203.39,203.39,0,0,0,257,305.55c18-12.57,33.08-27.87,43.54-47.37C305.52,248.89,308.54,239.09,308.08,228.42Z"/><path class="cls-3" d="M13.84,228a130.84,130.84,0,0,1,3.36-31.74,207.23,207.23,0,0,1,16.67-47.63,9.69,9.69,0,0,0,.51-8.34A240.47,240.47,0,0,1,20.51,89.39c-2.22-13.76-4.05-27.56-3.8-41.52.15-8,.74-16,3.15-23.75A28.35,28.35,0,0,1,21.52,20c3-6,5.65-7.13,12.12-5.64,9.16,2.12,17,6.66,24.41,12.32C70.44,36.2,81.4,47.2,92,58.63c3.37,3.64,6.75,7.28,10,11a6.21,6.21,0,0,0,7.45,1.89,132.06,132.06,0,0,1,27.69-6.83,159.27,159.27,0,0,1,28.79-1.39,212.72,212.72,0,0,1,23.76,2.29,145.94,145.94,0,0,1,24.8,6.15c3,1,4,.79,5.92-1.76a233.28,233.28,0,0,1,24.74-28c9.25-8.68,19.09-16.55,30.69-21.94a62.91,62.91,0,0,1,18.87-5.61c2.7-.34,4.26.46,5.41,3a55.4,55.4,0,0,1,5.33,19.08c.4,5.06,1.05,10.09.57,15.18-.91,9.73-1.58,19.49-3.34,29.13-3.42,18.78-8.82,37-14.56,55.18a19.13,19.13,0,0,0,1.48,15.81,146.15,146.15,0,0,1,16,46.85,130.52,130.52,0,0,1,2.21,19.11l0,10.53c-4.44-.41-8.92-1-13.39-1.21-19.79-1.14-38,3.46-54.48,14.73a115.73,115.73,0,0,0-13.44,11c-1.86,1.74-1.83,1.75-2.71-.55-.79-2-1.57-4.07-2.39-6.09-4.64-11.4-10.62-21.9-20.56-29.58-18.75-14.47-39.38-17.67-61.53-9.46-14,5.17-24,15.25-31.9,27.69A164.24,164.24,0,0,0,97,254.6a108.18,108.18,0,0,0-11.83-10.82,81.59,81.59,0,0,0-50-17.53A118.81,118.81,0,0,0,13.84,228ZM28,52.87a22.36,22.36,0,0,0,0,13.4c.53,4.25.93,8.52,1.62,12.73,1,6,2.48,12,4.05,17.89,2.34,8.75,5.06,17.38,7.82,26,.19.6.28,1.41,1.06,1.48s.89-.65,1.19-1.16a130.31,130.31,0,0,1,13.09-17.7A121.82,121.82,0,0,1,68.78,93c3.34-3,6.72-5.91,10.28-8.58,2.86-2.16,5.84-4.17,8.64-6.41,1.48-1.2,1.29-2.05-.21-3.23A47.62,47.62,0,0,1,82.89,71,231.86,231.86,0,0,0,65.08,54.91a124.23,124.23,0,0,0-28.2-17.68c-3.13-1.37-4.23-1-5.67,2.13-.16.38-.31.77-.43,1.16C29.49,44.55,29,48.81,28,52.87Zm263.15-2.13A26.08,26.08,0,0,1,290,45.28,14,14,0,0,0,287,37.63c-.66-.85-1.32-1.9-2.77-1.21-2.22,1.06-4.56,1.92-6.76,3a131,131,0,0,0-16.32,10.19,179.05,179.05,0,0,0-18,14.72c-3.11,2.9-6,6-8.95,9-3.27,3.35-3.21,4.44.79,7A102.38,102.38,0,0,1,251.63,94a176.53,176.53,0,0,1,12.57,13.66c3.95,4.87,8.39,9.39,10.94,15.27a1.68,1.68,0,0,0,1.78,1.18,1.54,1.54,0,0,0,1.48-1.48,23.45,23.45,0,0,1,.67-3.8c2.62-8,5.27-16,7.51-24.11a117.57,117.57,0,0,0,4.59-27c.74-2,.57-4.14.82-6.22a33,33,0,0,0-.84-10.76ZM69.89,177.57c0,6,2.55,10.05,7.26,12.82,11.79,6.92,24.57,10.73,38,12.48,3.51.46,7,1,10.55.15,3.18-.79,3.78-1.92,2.48-5a21.06,21.06,0,0,0-7.75-9.45,268.39,268.39,0,0,0-24.83-15.34c-6.22-3.27-12.57-6.15-19.58-7.44-2.66-.48-4.07.4-4.76,3A59.38,59.38,0,0,0,69.89,177.57Zm184.09.85a37.23,37.23,0,0,0-1.08-9.69c-.71-2.71-2-3.54-4.8-3.19a30,30,0,0,0-7.68,2A164.71,164.71,0,0,0,202.28,190a20.84,20.84,0,0,0-5.79,7.72c-1.43,2.91,0,5.17,3.1,5.43a35.41,35.41,0,0,0,4.94.14,88.72,88.72,0,0,0,14.31-2.22c10.45-2.3,20.4-5.82,29.31-11.89,4-2.7,6.88-6,5.83-10.75ZM92.83,157.53h2.48a38.15,38.15,0,0,0,12.9-1.81c3-1,5-2.83,5.29-6.15a15.14,15.14,0,0,0-.82-6.61c-1.62-4.44-5-7.34-8.52-10.17-9-7.24-25.63-1.25-27.91,11.1-1.48,8.13,2.63,13.37,10.92,13.62C89.05,157.59,91,157.53,92.83,157.53Zm134.79-.09c2.41,0,4.84.11,7.25,0a9.72,9.72,0,0,0,9.51-9.74c.05-6.37-3.06-11.18-8.2-14.63-10.93-7.4-26.67-.74-29.4,12.27-1.14,5.5,1.2,9.33,6.66,10.85a44.26,44.26,0,0,0,14.18,1.26Z"/><path class="cls-4" d="M13.84,228a119,119,0,0,1,21.31-1.77,81.56,81.56,0,0,1,50,17.53A109.29,109.29,0,0,1,97,254.61a165,165,0,0,1,10.39-19.85c7.84-12.44,17.9-22.5,31.88-27.67,22.15-8.21,42.79-5,61.53,9.45,9.94,7.67,15.92,18.18,20.56,29.59.82,2,1.6,4.05,2.39,6.09.88,2.3.86,2.29,2.71.55a115.73,115.73,0,0,1,13.44-11c16.44-11.3,34.7-15.9,54.46-14.77,4.43.26,8.92.8,13.38,1.22a.42.42,0,0,0,.31.15c.46,10.67-2.56,20.47-7.55,29.75C290,277.67,275,293,257,305.55a203.37,203.37,0,0,1-73.91,32.61,97.68,97.68,0,0,1-47.11-1.39,221,221,0,0,1-76.34-37.9,182,182,0,0,1-29.33-27.93c-8.67-10.4-14.79-22.08-16.95-35.59A13.23,13.23,0,0,1,13.84,228Zm178.62,72.52c.94-3,2.52-5.45,3.26-8.26.58-2.22,1.79-4,4.28-4.4a1.62,1.62,0,0,0,1.22-1.37c.78-3,1.52-5.92,2.28-8.88.15-.59.12-1-.7-1-3.7-.05-7.4-.26-11.1.55-4.49,1-9,1.84-13.66.86-4.94-1-7.9-3.9-8.32-9.16-.45-5.81-1.48-6.59,5.1-9.62a19.73,19.73,0,0,0,2.59-1.52c3.87-2.61,6.83-5.92,8.13-10.53,1.43-4.88,1.21-9.84.42-14.74a7.89,7.89,0,0,0-7.56-6.56c-9.45-.28-18.91-.25-28.35,0a6.31,6.31,0,0,0-6.38,5.53,76.35,76.35,0,0,0-.68,8.14c-.11,4.84,1.26,9.23,4.88,12.63A33.57,33.57,0,0,0,160,260c2.88,1,3.84,2.36,3.79,5.43a17.85,17.85,0,0,1-4,11.09,4.17,4.17,0,0,1-3.78,1.91,82.9,82.9,0,0,0-8.49-.16c-2.65,0-5.42.14-7.86-.94-4-1.78-8-.66-12-.57a1.22,1.22,0,0,0-.91.45c-.25.46.23.74.54,1,2.09,1.58,2.82,3.84,3.23,6.27.13.81.23,1.64.42,2.44s.58,1.29,1.48,1.23c1.7-.12,2.4.87,2.77,2.36a32.33,32.33,0,0,0,2.21,6.66c.6,1.22,1.22,3.39,2.4,3.06,1.48-.39,1.66-2.5,1.64-4.15,0-3.49,0-7-.23-10.45-.18-2.18.55-2.82,2.7-2.58,2.46.28,4.88.87,7.35,1,12,.83,23.94.93,35.83-1.1,2.33-.4,3.37.57,3.14,2.91-.31,3.18-.15,6.37-.18,9.56A7,7,0,0,0,192.46,300.55ZM164,287.93H151.73c-.63,0-1.38-.05-1.63.74a2.13,2.13,0,0,0,.31,2,3.92,3.92,0,0,0,5.43,1.15,4.49,4.49,0,0,0,.49-.37c1.76-1.48,3.13-1.34,4.43.51.49.66.91,1.37,1.37,2,1.81,2.62,3.12,2.69,5.28.29.11-.13.22-.27.34-.4,2.51-2.92,2.85-3,6.4-1.53,1.24.51,2.15-.15,3-.92a2.23,2.23,0,0,0,.74-2.55c-.44-1.11-1.48-1-2.42-1Z"/><path class="cls-5" d="M308.08,228.42a.39.39,0,0,1-.31-.15l.05-10.53C308.46,221.29,308.11,224.84,308.08,228.42Z"/><path class="cls-6" d="M291.15,67.71a116.93,116.93,0,0,1-4.59,27c-2.22,8.13-4.89,16.11-7.51,24.11a23.12,23.12,0,0,0-.66,3.79,1.54,1.54,0,0,1-1.48,1.48,1.67,1.67,0,0,1-1.78-1.18c-2.55-5.88-7-10.39-10.94-15.27A178.54,178.54,0,0,0,251.62,94,102,102,0,0,0,235,80.42c-4-2.56-4.05-3.69-.78-7,2.95-3,5.84-6.13,8.95-9a179,179,0,0,1,18-14.71,130,130,0,0,1,16.34-10.19c2.22-1.13,4.53-2,6.76-3,1.48-.69,2.12.36,2.77,1.21a14.14,14.14,0,0,1,3,7.65,24.88,24.88,0,0,0,1.19,5.46Z"/><path class="cls-6" d="M28,52.87c1-4.09,1.48-8.32,2.78-12.35.12-.39.27-.78.43-1.16,1.44-3.13,2.54-3.5,5.67-2.13a124.23,124.23,0,0,1,28.2,17.68A231.86,231.86,0,0,1,82.89,71a46.72,46.72,0,0,0,4.62,3.81c1.48,1.18,1.71,2,.21,3.23-2.8,2.22-5.78,4.25-8.64,6.41C75.52,87.14,72.15,90.06,68.8,93a122.59,122.59,0,0,0-12,12.47,130.84,130.84,0,0,0-13.09,17.69c-.3.51-.53,1.21-1.19,1.16s-.87-.86-1.06-1.47c-2.76-8.63-5.48-17.27-7.82-26C32.1,91,30.6,85,29.61,79c-.68-4.22-1.08-8.49-1.62-12.73Q28,59.57,28,52.87Z"/><path class="cls-7" d="M69.89,177.57a58.85,58.85,0,0,1,1.41-8.75c.69-2.6,2.1-3.48,4.76-3,7,1.29,13.36,4.16,19.58,7.44a259.68,259.68,0,0,1,24.83,15.3,21,21,0,0,1,7.75,9.45c1.3,3,.7,4.17-2.48,5-3.54.88-7,.31-10.55-.15-13.47-1.75-26.25-5.56-38-12.47C72.44,187.62,69.94,183.58,69.89,177.57Z"/><path class="cls-8" d="M254,178.42c1.05,4.74-1.81,8.05-5.83,10.78-8.91,6.07-18.86,9.62-29.31,11.89a88.72,88.72,0,0,1-14.31,2.22,35.41,35.41,0,0,1-4.94-.14c-3.08-.29-4.48-2.62-3.1-5.43a21.19,21.19,0,0,1,5.79-7.72,164.71,164.71,0,0,1,38.14-22.49,30,30,0,0,1,7.68-2c2.83-.35,4.09.48,4.8,3.19A37.44,37.44,0,0,1,254,178.42Z"/><path class="cls-9" d="M92.83,157.53c-1.88,0-3.78.05-5.66,0-8.29-.25-12.41-5.49-10.92-13.62,2.28-12.33,18.93-18.33,27.91-11.09,3.51,2.82,6.9,5.74,8.52,10.16a15.16,15.16,0,0,1,.82,6.61c-.25,3.32-2.34,5.18-5.29,6.15a38.15,38.15,0,0,1-12.9,1.81H92.83Z"/><path class="cls-9" d="M227.62,157.45a44.5,44.5,0,0,1-14.22-1.26c-5.42-1.53-7.76-5.36-6.65-10.86,2.72-13,18.48-19.64,29.39-12.27,5.18,3.45,8.25,8.26,8.2,14.63a9.71,9.71,0,0,1-9.51,9.74C232.46,157.53,230,157.45,227.62,157.45Z"/><path class="cls-10" d="M291.15,67.71v-17A32.75,32.75,0,0,1,292,61.5C291.72,63.6,291.92,65.71,291.15,67.71Z"/><path class="cls-11" d="M28,52.87v13.4A22.36,22.36,0,0,1,28,52.87Z"/><path class="cls-12" d="M192.46,300.55a7,7,0,0,1-2.41-5.18c0-3.19-.12-6.38.19-9.56q.34-3.51-3.15-2.92c-11.89,2-23.86,1.94-35.83,1.11-2.46-.17-4.89-.74-7.34-1-2.16-.24-2.89.4-2.71,2.57.29,3.49.21,7,.24,10.45,0,1.65-.2,3.77-1.65,4.16-1.17.33-1.8-1.84-2.39-3.06a32.56,32.56,0,0,1-2.22-6.66c-.37-1.48-1.07-2.48-2.77-2.36-.88.06-1.28-.5-1.48-1.23s-.28-1.63-.42-2.44c-.4-2.43-1.14-4.69-3.22-6.27-.32-.23-.8-.51-.55-1a1.22,1.22,0,0,1,.91-.45c4-.09,8.05-1.21,12.06.57,2.44,1.08,5.17.93,7.85.94a83.14,83.14,0,0,1,8.5.16,4.19,4.19,0,0,0,3.77-1.91,17.87,17.87,0,0,0,4-11.1c0-3.06-.92-4.43-3.8-5.42a34.41,34.41,0,0,1-12.12-7.75c-3.54-3.32-5-7.79-4.87-12.64a76.39,76.39,0,0,1,.68-8.13,6.31,6.31,0,0,1,6.37-5.53c9.45-.25,18.91-.29,28.35,0a7.89,7.89,0,0,1,7.56,6.56c.79,4.9,1,9.85-.41,14.74a19.11,19.11,0,0,1-8.14,10.53,19.61,19.61,0,0,1-2.58,1.52c-6.58,3-5.56,3.82-5.1,9.62.41,5.26,3.38,8.13,8.32,9.16,4.63,1,9.17.13,13.66-.87,3.69-.8,7.39-.59,11.09-.54.83,0,.85.39.7,1-.74,3-1.48,5.92-2.28,8.88a1.61,1.61,0,0,1-1.22,1.37c-2.49.44-3.69,2.18-4.28,4.4C195,295.1,193.4,297.55,192.46,300.55Z"/><path class="cls-13" d="M164,287.93h11.52c1,0,2-.14,2.41,1a2.19,2.19,0,0,1-.74,2.54c-.85.78-1.76,1.44-3,.93-3.55-1.48-3.89-1.39-6.4,1.52-.12.13-.22.27-.34.41-2.15,2.39-3.47,2.33-5.27-.29-.47-.68-.89-1.39-1.37-2.06-1.34-1.85-2.71-2-4.44-.51a3.93,3.93,0,0,1-5.55-.29,4.37,4.37,0,0,1-.37-.48,2.18,2.18,0,0,1-.31-2c.25-.78,1-.73,1.64-.73H164Z"/></g></g></g></g></g></svg>